font.ufo
<glyph name="numbersign" format="1">
	<unicode hex="0023"/>
	<advance width="600"/>
	<outline>
		<contour>
			<point x="304" y="0" type="line"/>
			<point x="402" y="0" type="line"/>
			<point x="480" y="650" type="line"/>
			<point x="384" y="650" type="line"/>
		</contour>
		<contour>
			<point x="114" y="0" type="line"/>
			<point x="212" y="0" type="line"/>
			<point x="290" y="650" type="line"/>
			<point x="194" y="650" type="line"/>
		</contour>
		<contour>
			<point x="84" y="384" type="line"/>
			<point x="540" y="384" type="line"/>
			<point x="540" y="492" type="line"/>
			<point x="84" y="492" type="line"/>
		</contour>
		<contour>
			<point x="64" y="180" type="line"/>
			<point x="520" y="180" type="line"/>
			<point x="520" y="288" type="line"/>
			<point x="64" y="288" type="line"/>
		</contour>
	</outline>
</glyph>
<glyph name="period" format="2">
	<unicode hex="002E"/>
	<advance width="600"/>
	<outline>
		<contour>
			<point x="300" y="-12" type="curve" smooth="yes"/>
			<point x="378" y="-12"/>
			<point x="430" y="46"/>
			<point x="430" y="118" type="curve" smooth="yes"/>
			<point x="430" y="189"/>
			<point x="378" y="248"/>
			<point x="300" y="248" type="curve" smooth="yes"/>
			<point x="222" y="248"/>
			<point x="170" y="189"/>
			<point x="170" y="118" type="curve" smooth="yes"/>
			<point x="170" y="46"/>
			<point x="222" y="-12"/>
		</contour>
	</outline>
</glyph>
<glyph name="A" format="1">
	<unicode hex="0041"/>
	<advance width="600"/>
	<outline>
		<contour>
			<point x="0" y="0" type="line"/>
			<point x="176" y="0" type="line"/>
			<point x="249" y="316" type="line" smooth="yes"/>
			<point x="263" y="378"/>
			<point x="280" y="456"/>
			<point x="294" y="522" type="curve"/>
			<point x="298" y="522" type="line"/>
			<point x="312" y="456"/>
			<point x="331" y="378"/>
			<point x="345" y="316" type="curve" smooth="yes"/>
			<point x="418" y="0" type="line"/>
			<point x="600" y="0" type="line"/>
			<point x="404" y="650" type="line"/>
			<point x="196" y="650" type="line"/>
		</contour>
		<contour>
			<point x="141" y="138" type="line"/>
			<point x="457" y="138" type="line"/>
			<point x="457" y="271" type="line"/>
			<point x="141" y="271" type="line"/>
		</contour>
		<contour>
			<point name="aboveUC" x="300" y="670" type="move"/>
		</contour>
		<contour>
			<point name="ogonekCXT-ATH" x="300" y="0" type="move"/>
		</contour>
		<contour>
			<point name="ogonekUC" x="490" y="0" type="move"/>
		</contour>
		<contour>
			<point name="baseLC" x="514" y="0" type="move"/>
		</contour>
		<contour>
			<point name="belowLC" x="300" y="-20" type="move"/>
		</contour>
	</outline>
</glyph>
<glyph name="D" format="1">
	<unicode hex="0044"/>
	<advance width="600"/>
	<outline>
		<contour>
			<point x="64" y="0" type="line"/>
			<point x="261" y="0" type="line" smooth="yes"/>
			<point x="437" y="0"/>
			<point x="568" y="98"/>
			<point x="568" y="328" type="curve" smooth="yes"/>
			<point x="568" y="558"/>
			<point x="437" y="650"/>
			<point x="251" y="650" type="curve" smooth="yes"/>
			<point x="64" y="650" type="line"/>
		</contour>
		<contour>
			<point x="236" y="138" type="line"/>
			<point x="236" y="512" type="line"/>
			<point x="242" y="512" type="line" smooth="yes"/>
			<point x="325" y="512"/>
			<point x="392" y="480"/>
			<point x="392" y="328" type="curve" smooth="yes"/>
			<point x="392" y="176"/>
			<point x="325" y="138"/>
			<point x="242" y="138" type="curve" smooth="yes"/>
		</contour>
		<contour>
			<point name="aboveUC" x="300" y="670" type="move"/>
		</contour>
		<contour>
			<point name="baseLC" x="280" y="0" type="move"/>
		</contour>
		<contour>
			<point name="belowLC" x="300" y="-20" type="move"/>
		</contour>
	</outline>
</glyph>
<glyph name="F" format="1">
	<unicode hex="0046"/>
	<advance width="600"/>
	<outline>
		<contour>
			<point x="94" y="0" type="line"/>
			<point x="266" y="0" type="line"/>
			<point x="266" y="238" type="line"/>
			<point x="500" y="238" type="line"/>
			<point x="500" y="382" type="line"/>
			<point x="266" y="382" type="line"/>
			<point x="266" y="506" type="line"/>
			<point x="539" y="506" type="line"/>
			<point x="539" y="650" type="line"/>
			<point x="94" y="650" type="line"/>
		</contour>
		<contour>
			<point name="aboveUC" x="330" y="670" type="move"/>
		</contour>
		<contour>
			<point name="baseLC" x="180" y="0" type="move"/>
		</contour>
		<contour>
			<point name="belowLC" x="180" y="-20" type="move"/>
		</contour>
	</outline>
</glyph>
<glyph name="G" format="1">
	<unicode hex="0047"/>
	<advance width="600"/>
	<outline>
		<contour>
			<point x="345" y="-12" type="curve" smooth="yes"/>
			<point x="428" y="-12"/>
			<point x="508" y="28"/>
			<point x="552" y="68" type="curve"/>
			<point x="552" y="378" type="line"/>
			<point x="318" y="378" type="line"/>
			<point x="318" y="238" type="line"/>
			<point x="399" y="238" type="line"/>
			<point x="399" y="148" type="line"/>
			<point x="389" y="140"/>
			<point x="371" y="136"/>
			<point x="355" y="136" type="curve" smooth="yes"/>
			<point x="262" y="136"/>
			<point x="217" y="204"/>
			<point x="217" y="326" type="curve" smooth="yes"/>
			<point x="217" y="444"/>
			<point x="275" y="514"/>
			<point x="346" y="514" type="curve" smooth="yes"/>
			<point x="393" y="514"/>
			<point x="419" y="498"/>
			<point x="446" y="472" type="curve"/>
			<point x="540" y="578" type="line"/>
			<point x="497" y="622"/>
			<point x="434" y="662"/>
			<point x="346" y="662" type="curve" smooth="yes"/>
			<point x="177" y="662"/>
			<point x="40" y="540"/>
			<point x="40" y="320" type="curve" smooth="yes"/>
			<point x="40" y="98"/>
			<point x="178" y="-12"/>
		</contour>
		<contour>
			<point name="aboveUC" x="330" y="670" type="move"/>
		</contour>
		<contour>
			<point name="belowLC" x="320" y="-20" type="move"/>
		</contour>
	</outline>
</glyph>
<glyph name="I" format="2">
	<unicode hex="0049"/>
	<advance width="600"/>
	<outline>
		<contour>
			<point x="66" y="0" type="line"/>
			<point x="534" y="0" type="line"/>
			<point x="534" y="144" type="line"/>
			<point x="386" y="144" type="line"/>
			<point x="386" y="506" type="line"/>
			<point x="534" y="506" type="line"/>
			<point x="534" y="650" type="line"/>
			<point x="66" y="650" type="line"/>
			<point x="66" y="506" type="line"/>
			<point x="214" y="506" type="line"/>
			<point x="214" y="144" type="line"/>
			<point x="66" y="144" type="line"/>
		</contour>
	</outline>
	<anchor name="aboveUC" x="300" y="670"/>
	<anchor name="baseLC" x="300" y="0"/>
	<anchor name="belowLC" x="300" y="-20"/>
	<anchor name="ogonekUC" x="300" y="0"/>
</glyph>
<glyph name="L" format="1">
	<unicode hex="004C"/>
	<advance width="600"/>
	<outline>
		<contour>
			<point x="96" y="0" type="line"/>
			<point x="545" y="0" type="line"/>
			<point x="545" y="144" type="line"/>
			<point x="268" y="144" type="line"/>
			<point x="268" y="650" type="line"/>
			<point x="96" y="650" type="line"/>
		</contour>
		<contour>
			<point name="aboveUC" x="194" y="670" type="move"/>
		</contour>
		<contour>
			<point name="center" x="180" y="350" type="move"/>
		</contour>
		<contour>
			<point name="baseLC" x="330" y="0" type="move"/>
		</contour>
		<contour>
			<point name="belowLC" x="330" y="-20" type="move"/>
		</contour>
	</outline>
</glyph>
<glyph name="U" format="2">
	<unicode hex="0055"/>
	<advance width="600"/>
	<outline>
		<contour>
			<point x="302" y="-12" type="curve" smooth="yes"/>
			<point x="472" y="-12"/>
			<point x="542" y="90"/>
			<point x="542" y="252" type="curve" smooth="yes"/>
			<point x="542" y="650" type="line"/>
			<point x="376" y="650" type="line"/>
			<point x="376" y="232" type="line" smooth="yes"/>
			<point x="376" y="176"/>
			<point x="357" y="136"/>
			<point x="302" y="136" type="curve" smooth="yes"/>
			<point x="247" y="136"/>
			<point x="230" y="176"/>
			<point x="230" y="232" type="curve" smooth="yes"/>
			<point x="230" y="650" type="line"/>
			<point x="58" y="650" type="line"/>
			<point x="58" y="252" type="line" smooth="yes"/>
			<point x="58" y="90"/>
			<point x="132" y="-12"/>
		</contour>
	</outline>
	<anchor name="aboveUC" x="300" y="670"/>
	<anchor name="baseLC" x="300" y="0"/>
	<anchor name="belowLC" x="300" y="-20"/>
	<anchor name="hornLC" x="516" y="660"/>
	<anchor name="ogonekUC" x="300" y="0"/>
</glyph>
<glyph name="Z" format="1">
	<unicode hex="005A"/>
	<advance width="600"/>
	<outline>
		<contour>
			<point x="53" y="0" type="line"/>
			<point x="550" y="0" type="line"/>
			<point x="550" y="144" type="line"/>
			<point x="266" y="144" type="line"/>
			<point x="547" y="546" type="line"/>
			<point x="547" y="650" type="line"/>
			<point x="80" y="650" type="line"/>
			<point x="80" y="506" type="line"/>
			<point x="334" y="506" type="line"/>
			<point x="53" y="104" type="line"/>
		</contour>
		<contour>
			<point name="aboveUC" x="320" y="670" type="move"/>
		</contour>
		<contour>
			<point name="baseLC" x="320" y="0" type="move"/>
		</contour>
		<contour>
			<point name="belowLC" x="310" y="-20" type="move"/>
		</contour>
	</outline>
</glyph>
<glyph name="d" format="1">
	<unicode hex="0064"/>
	<advance width="600"/>
	<outline>
		<contour>
			<point x="251" y="-12" type="curve" smooth="yes"/>
			<point x="296" y="-12"/>
			<point x="345" y="12"/>
			<point x="380" y="46" type="curve"/>
			<point x="384" y="46" type="line"/>
			<point x="396" y="0" type="line"/>
			<point x="536" y="0" type="line"/>
			<point x="536" y="696" type="line"/>
			<point x="364" y="696" type="line"/>
			<point x="364" y="534" type="line"/>
			<point x="372" y="462" type="line"/>
			<point x="368" y="462" type="line"/>
			<point x="338" y="494"/>
			<point x="304" y="512"/>
			<point x="251" y="512" type="curve" smooth="yes"/>
			<point x="146" y="512"/>
			<point x="42" y="414"/>
			<point x="42" y="250" type="curve" smooth="yes"/>
			<point x="42" y="88"/>
			<point x="124" y="-12"/>
		</contour>
		<contour>
			<point x="296" y="128" type="curve" smooth="yes"/>
			<point x="247" y="128"/>
			<point x="218" y="162"/>
			<point x="218" y="252" type="curve" smooth="yes"/>
			<point x="218" y="340"/>
			<point x="256" y="372"/>
			<point x="298" y="372" type="curve" smooth="yes"/>
			<point x="322" y="372"/>
			<point x="344" y="366"/>
			<point x="364" y="348" type="curve"/>
			<point x="364" y="164" type="line"/>
			<point x="345" y="136"/>
			<point x="324" y="128"/>
		</contour>
		<contour>
			<point name="aboveUC" x="440" y="730" type="move"/>
		</contour>
		<contour>
			<point name="baseLC" x="270" y="0" type="move"/>
		</contour>
		<contour>
			<point name="belowLC" x="310" y="-20" type="move"/>
		</contour>
	</outline>
</glyph>
<glyph name="l" format="1">
	<unicode hex="006C"/>
	<advance width="600"/>
	<outline>
		<contour>
			<point x="391" y="-12" type="curve" smooth="yes"/>
			<point x="456" y="-12"/>
			<point x="492" y="-2"/>
			<point x="546" y="14" type="curve"/>
			<point x="509" y="140" type="line"/>
			<point x="480" y="130"/>
			<point x="458" y="126"/>
			<point x="437" y="126" type="curve" smooth="yes"/>
			<point x="402" y="126"/>
			<point x="362" y="142"/>
			<point x="362" y="200" type="curve" smooth="yes"/>
			<point x="362" y="696" type="line"/>
			<point x="40" y="696" type="line"/>
			<point x="40" y="562" type="line"/>
			<point x="190" y="562" type="line"/>
			<point x="190" y="206" type="line" smooth="yes"/>
			<point x="190" y="76"/>
			<point x="258" y="-12"/>
		</contour>
		<contour>
			<point name="aboveUC" x="270" y="730" type="move"/>
		</contour>
		<contour>
			<point name="center" x="274" y="360" type="move"/>
		</contour>
		<contour>
			<point name="baseLC" x="300" y="0" type="move"/>
		</contour>
		<contour>
			<point name="belowLC" x="360" y="-20" type="move"/>
		</contour>
	</outline>
</glyph>
<glyph name="u" format="1">
	<unicode hex="0075"/>
	<advance width="600"/>
	<outline>
		<contour>
			<point x="214" y="-12" type="curve" smooth="yes"/>
			<point x="284" y="-12"/>
			<point x="334" y="18"/>
			<point x="376" y="66" type="curve"/>
			<point x="380" y="66" type="line"/>
			<point x="392" y="0" type="line"/>
			<point x="532" y="0" type="line"/>
			<point x="532" y="500" type="line"/>
			<point x="360" y="500" type="line"/>
			<point x="360" y="178" type="line"/>
			<point x="334" y="142"/>
			<point x="314" y="134"/>
			<point x="285" y="134" type="curve" smooth="yes"/>
			<point x="240" y="134"/>
			<point x="228" y="158"/>
			<point x="228" y="214" type="curve" smooth="yes"/>
			<point x="228" y="500" type="line"/>
			<point x="56" y="500" type="line"/>
			<point x="56" y="192" type="line" smooth="yes"/>
			<point x="56" y="68"/>
			<point x="102" y="-12"/>
		</contour>
		<contour>
			<point name="ogonekCXT-ATH" x="280" y="0" type="move"/>
		</contour>
		<contour>
			<point name="ogonekLC" x="420" y="0" type="move"/>
		</contour>
		<contour>
			<point name="aboveLC" x="296" y="520" type="move"/>
		</contour>
		<contour>
			<point name="baseLC" x="460" y="0" type="move"/>
		</contour>
		<contour>
			<point name="belowLC" x="318" y="-20" type="move"/>
		</contour>
	</outline>
</glyph>
<glyph name="z" format="1">
	<unicode hex="007A"/>
	<advance width="600"/>
	<outline>
		<contour>
			<point x="70" y="0" type="line"/>
			<point x="544" y="0" type="line"/>
			<point x="544" y="134" type="line"/>
			<point x="306" y="134" type="line"/>
			<point x="538" y="408" type="line"/>
			<point x="538" y="500" type="line"/>
			<point x="98" y="500" type="line"/>
			<point x="98" y="366" type="line"/>
			<point x="300" y="366" type="line"/>
			<point x="70" y="92" type="line"/>
		</contour>
		<contour>
			<point name="aboveLC" x="330" y="520" type="move"/>
		</contour>
		<contour>
			<point name="baseLC" x="320" y="0" type="move"/>
		</contour>
		<contour>
			<point name="belowLC" x="310" y="-20" type="move"/>
		</contour>
	</outline>
</glyph>
<glyph name="Oslash" format="2">
	<unicode hex="00D8"/>
	<advance width="600"/>
	<outline>
		<contour>
			<point x="12" y="12" type="line"/>
			<point x="102" y="-46" type="line"/>
			<point x="588" y="638" type="line"/>
			<point x="498" y="696" type="line"/>
		</contour>
		<component base="O"/>
	</outline>
	<anchor name="aboveUC" x="300" y="670"/>
	<anchor name="baseLC" x="300" y="0"/>
</glyph>
<glyph name="aogonek" format="1">
	<unicode hex="0105"/>
	<advance width="600"/>
	<outline>
		<contour>
			<point x="442" y="-228" type="curve" smooth="yes"/>
			<point x="479" y="-228"/>
			<point x="532" y="-215"/>
			<point x="562" y="-192" type="curve"/>
			<point x="528" y="-116" type="line"/>
			<point x="518" y="-123"/>
			<point x="500" y="-128"/>
			<point x="484" y="-128" type="curve" smooth="yes"/>
			<point x="459" y="-128"/>
			<point x="434" y="-116"/>
			<point x="434" y="-86" type="curve" smooth="yes"/>
			<point x="434" y="-55"/>
			<point x="466" y="-18"/>
			<point x="542" y="0" type="curve"/>
			<point x="542" y="278" type="line" smooth="yes"/>
			<point x="542" y="442"/>
			<point x="450" y="512"/>
			<point x="308" y="512" type="curve" smooth="yes"/>
			<point x="224" y="512"/>
			<point x="146" y="488"/>
			<point x="70" y="446" type="curve"/>
			<point x="130" y="334" type="line"/>
			<point x="190" y="362"/>
			<point x="232" y="376"/>
			<point x="274" y="376" type="curve" smooth="yes"/>
			<point x="330" y="376"/>
			<point x="364" y="360"/>
			<point x="370" y="324" type="curve"/>
			<point x="142" y="312"/>
			<point x="54" y="254"/>
			<point x="54" y="142" type="curve" smooth="yes"/>
			<point x="54" y="60"/>
			<point x="112" y="-12"/>
			<point x="216" y="-12" type="curve" smooth="yes"/>
			<point x="278" y="-12"/>
			<point x="337" y="16"/>
			<point x="386" y="52" type="curve"/>
			<point x="390" y="52" type="line"/>
			<point x="404" y="-4" type="line"/>
			<point x="371" y="-22"/>
			<point x="320" y="-62"/>
			<point x="320" y="-126" type="curve" smooth="yes"/>
			<point x="320" y="-193"/>
			<point x="375" y="-228"/>
		</contour>
		<contour>
			<point x="272" y="120" type="curve" smooth="yes"/>
			<point x="236" y="120"/>
			<point x="218" y="133"/>
			<point x="218" y="156" type="curve" smooth="yes"/>
			<point x="218" y="190"/>
			<point x="248" y="218"/>
			<point x="370" y="222" type="curve"/>
			<point x="370" y="158" type="line"/>
			<point x="343" y="138"/>
			<point x="312" y="120"/>
		</contour>
		<contour>
			<point name="aboveLC" x="320" y="520" type="move"/>
		</contour>
	</outline>
</glyph>
<glyph name="eogonek" format="1">
	<unicode hex="0119"/>
	<advance width="600"/>
	<outline>
		<contour>
			<point x="412" y="-228" type="curve" smooth="yes"/>
			<point x="449" y="-228"/>
			<point x="502" y="-215"/>
			<point x="532" y="-192" type="curve"/>
			<point x="498" y="-116" type="line"/>
			<point x="486" y="-123"/>
			<point x="470" y="-128"/>
			<point x="454" y="-128" type="curve" smooth="yes"/>
			<point x="426" y="-128"/>
			<point x="404" y="-114"/>
			<point x="404" y="-86" type="curve" smooth="yes"/>
			<point x="404" y="-46"/>
			<point x="428" y="-21"/>
			<point x="530" y="46" type="curve"/>
			<point x="474" y="148" type="line"/>
			<point x="430" y="128"/>
			<point x="394" y="118"/>
			<point x="354" y="118" type="curve" smooth="yes"/>
			<point x="262" y="118"/>
			<point x="216" y="156"/>
			<point x="216" y="250" type="curve" smooth="yes"/>
			<point x="216" y="340"/>
			<point x="252" y="382"/>
			<point x="318" y="382" type="curve" smooth="yes"/>
			<point x="374" y="382"/>
			<point x="400" y="346"/>
			<point x="400" y="280" type="curve"/>
			<point x="424" y="310" type="line"/>
			<point x="180" y="310" type="line"/>
			<point x="180" y="198" type="line"/>
			<point x="543" y="198" type="line"/>
			<point x="545" y="210"/>
			<point x="550" y="240"/>
			<point x="550" y="270" type="curve" smooth="yes"/>
			<point x="550" y="404"/>
			<point x="470" y="512"/>
			<point x="312" y="512" type="curve" smooth="yes"/>
			<point x="178" y="512"/>
			<point x="50" y="414"/>
			<point x="50" y="250" type="curve" smooth="yes"/>
			<point x="50" y="84"/>
			<point x="172" y="-12"/>
			<point x="330" y="-12" type="curve" smooth="yes"/>
			<point x="342" y="-12"/>
			<point x="362" y="-10"/>
			<point x="386" y="-6" type="curve"/>
			<point x="378" y="8" type="line"/>
			<point x="320" y="-36"/>
			<point x="290" y="-74"/>
			<point x="290" y="-126" type="curve" smooth="yes"/>
			<point x="290" y="-193"/>
			<point x="341" y="-228"/>
		</contour>
		<contour>
			<point name="aboveLC" x="310" y="520" type="move"/>
		</contour>
	</outline>
</glyph>
<glyph name="lslash" format="2">
	<unicode hex="0142"/>
	<advance width="600"/>
	<outline>
		<contour>
			<point x="114" y="214" type="line"/>
			<point x="198" y="262" type="line"/>
			<point x="329" y="320" type="line"/>
			<point x="532" y="430" type="line"/>
			<point x="474" y="536" type="line"/>
			<point x="329" y="456" type="line"/>
			<point x="198" y="398" type="line"/>
			<point x="56" y="320" type="line"/>
		</contour>
		<component base="l"/>
	</outline>
	<anchor name="aboveUC" x="270" y="730"/>
	<anchor name="belowLC" x="360" y="-20"/>
</glyph>
<glyph name="Dhook" format="1">
	<unicode hex="018A"/>
	<advance width="600"/>
	<outline>
		<contour>
			<point x="180" y="0" type="line"/>
			<point x="316" y="0" type="line" smooth="yes"/>
			<point x="472" y="0"/>
			<point x="586" y="98"/>
			<point x="586" y="334" type="curve" smooth="yes"/>
			<point x="586" y="564"/>
			<point x="472" y="662"/>
			<point x="284" y="662" type="curve" smooth="yes"/>
			<point x="79" y="662"/>
			<point x="-2" y="564"/>
			<point x="-2" y="426" type="curve" smooth="yes"/>
			<point x="-2" y="337"/>
			<point x="38" y="284"/>
			<point x="108" y="250" type="curve"/>
			<point x="168" y="358" type="line"/>
			<point x="139" y="375"/>
			<point x="124" y="398"/>
			<point x="124" y="436" type="curve" smooth="yes"/>
			<point x="124" y="486"/>
			<point x="153" y="524"/>
			<point x="240" y="524" type="curve" smooth="yes"/>
			<point x="312" y="524" type="line" smooth="yes"/>
			<point x="386" y="524"/>
			<point x="430" y="486"/>
			<point x="430" y="334" type="curve" smooth="yes"/>
			<point x="430" y="176"/>
			<point x="391" y="138"/>
			<point x="342" y="138" type="curve" smooth="yes"/>
			<point x="332" y="138" type="line"/>
			<point x="332" y="570" type="line"/>
			<point x="180" y="570" type="line"/>
		</contour>
		<contour>
			<point name="aboveUC" x="350" y="670" type="move"/>
		</contour>
		<contour>
			<point name="belowLC" x="370" y="-20" type="move"/>
		</contour>
	</outline>
</glyph>
<glyph name="Istroke" format="2">
	<unicode hex="0197"/>
	<advance width="600"/>
	<outline>
		<contour>
			<point x="124" y="278" type="line"/>
			<point x="476" y="278" type="line"/>
			<point x="476" y="390" type="line"/>
			<point x="220" y="390" type="line"/>
			<point x="124" y="384" type="line"/>
		</contour>
		<component base="I"/>
	</outline>
</glyph>
<glyph name="clickretroflex" format="2">
	<unicode hex="01C3"/>
	<advance width="600"/>
	<outline>
		<contour>
			<point x="244" y="264" type="line"/>
			<point x="356" y="264" type="line"/>
			<point x="382" y="522" type="line"/>
			<point x="388" y="696" type="line"/>
			<point x="212" y="696" type="line"/>
			<point x="218" y="522" type="line"/>
		</contour>
		<contour>
			<point x="300" y="-12" type="curve" smooth="yes"/>
			<point x="364" y="-12"/>
			<point x="410" y="35"/>
			<point x="410" y="99" type="curve" smooth="yes"/>
			<point x="410" y="163"/>
			<point x="364" y="208"/>
			<point x="300" y="208" type="curve" smooth="yes"/>
			<point x="236" y="208"/>
			<point x="190" y="163"/>
			<point x="190" y="99" type="curve" smooth="yes"/>
			<point x="190" y="35"/>
			<point x="236" y="-12"/>
		</contour>
	</outline>
	<anchor name="aboveUC" x="300" y="720"/>
	<anchor name="belowLC" x="300" y="-22"/>
</glyph>
<glyph name="Glottalstop" format="2">
	<unicode hex="0241"/>
	<advance width="550"/>
	<outline>
		<contour>
			<point x="162" y="0" type="line"/>
			<point x="334" y="0" type="line"/>
			<point x="334" y="192" type="line"/>
			<point x="428" y="242"/>
			<point x="508" y="328"/>
			<point x="508" y="446" type="curve" smooth="yes"/>
			<point x="508" y="590"/>
			<point x="383" y="662"/>
			<point x="244" y="662" type="curve" smooth="yes"/>
			<point x="148" y="662"/>
			<point x="62" y="620"/>
			<point x="0" y="560" type="curve"/>
			<point x="86" y="450" type="line"/>
			<point x="130" y="488"/>
			<point x="187" y="514"/>
			<point x="228" y="514" type="curve" smooth="yes"/>
			<point x="288" y="514"/>
			<point x="332" y="486"/>
			<point x="332" y="430" type="curve" smooth="yes"/>
			<point x="332" y="368"/>
			<point x="286" y="316"/>
			<point x="162" y="266" type="curve"/>
		</contour>
	</outline>
	<anchor name="aboveUC" x="270" y="672"/>
	<anchor name="belowLC" x="240" y="-22"/>
</glyph>
<glyph name="Bstroke" format="1">
	<unicode hex="0243"/>
	<advance width="600"/>
	<outline>
		<contour>
			<point x="76" y="0" type="line"/>
			<point x="316" y="0" type="line" smooth="yes"/>
			<point x="456" y="0"/>
			<point x="568" y="61"/>
			<point x="568" y="202" type="curve" smooth="yes"/>
			<point x="568" y="294"/>
			<point x="522" y="345"/>
			<point x="430" y="364" type="curve"/>
			<point x="430" y="368" type="line"/>
			<point x="506" y="387"/>
			<point x="538" y="442"/>
			<point x="538" y="494" type="curve" smooth="yes"/>
			<point x="538" y="614"/>
			<point x="432" y="650"/>
			<point x="296" y="650" type="curve" smooth="yes"/>
			<point x="76" y="650" type="line"/>
		</contour>
		<contour>
			<point x="2" y="174" type="line"/>
			<point x="340" y="174" type="line"/>
			<point x="340" y="254" type="line"/>
			<point x="78" y="254" type="line"/>
			<point x="2" y="248" type="line"/>
		</contour>
		<contour>
			<point x="248" y="122" type="line"/>
			<point x="248" y="304" type="line"/>
			<point x="304" y="304" type="line" smooth="yes"/>
			<point x="372" y="304"/>
			<point x="398" y="278"/>
			<point x="398" y="216" type="curve" smooth="yes"/>
			<point x="398" y="156"/>
			<point x="371" y="122"/>
			<point x="304" y="122" type="curve" smooth="yes"/>
		</contour>
		<contour>
			<point x="248" y="404" type="line"/>
			<point x="248" y="528" type="line"/>
			<point x="292" y="528" type="line" smooth="yes"/>
			<point x="348" y="528"/>
			<point x="374" y="512"/>
			<point x="374" y="472" type="curve" smooth="yes"/>
			<point x="374" y="428"/>
			<point x="347" y="404"/>
			<point x="292" y="404" type="curve" smooth="yes"/>
		</contour>
	</outline>
</glyph>
<glyph name="schwahookrhotic" format="1">
	<unicode hex="025A"/>
	<advance width="600"/>
	<outline>
		<contour>
			<point x="198" y="-12" type="curve" smooth="yes"/>
			<point x="324" y="-12"/>
			<point x="408" y="90"/>
			<point x="408" y="240" type="curve" smooth="yes"/>
			<point x="408" y="406"/>
			<point x="329" y="512"/>
			<point x="177" y="512" type="curve" smooth="yes"/>
			<point x="132" y="512"/>
			<point x="72" y="498"/>
			<point x="18" y="462" type="curve"/>
			<point x="74" y="354" type="line"/>
			<point x="102" y="372"/>
			<point x="130" y="384"/>
			<point x="160" y="384" type="curve" smooth="yes"/>
			<point x="218" y="384"/>
			<point x="250" y="348"/>
			<point x="250" y="196" type="curve" smooth="yes"/>
			<point x="250" y="140"/>
			<point x="226" y="116"/>
			<point x="196" y="116" type="curve" smooth="yes"/>
			<point x="168" y="116"/>
			<point x="142" y="126"/>
			<point x="130" y="198" type="curve"/>
			<point x="118" y="156" type="line"/>
			<point x="434" y="318" type="line"/>
			<point x="457" y="239"/>
			<point x="506" y="224"/>
			<point x="554" y="224" type="curve" smooth="yes"/>
			<point x="581" y="224"/>
			<point x="604" y="237"/>
			<point x="624" y="250" type="curve"/>
			<point x="591" y="330" type="line"/>
			<point x="583" y="326"/>
			<point x="575" y="320"/>
			<point x="564" y="320" type="curve" smooth="yes"/>
			<point x="533" y="320"/>
			<point x="522" y="344"/>
			<point x="522" y="418" type="curve"/>
			<point x="446" y="448" type="line"/>
			<point x="-6" y="224" type="line"/>
			<point x="0" y="94"/>
			<point x="60" y="-12"/>
		</contour>
		<contour>
			<point name="aboveLC" x="210" y="520" type="move"/>
		</contour>
		<contour>
			<point name="belowLC" x="200" y="-20" type="move"/>
		</contour>
	</outline>
</glyph>
<glyph name="gammalatin" format="1">
	<unicode hex="0263"/>
	<advance width="600"/>
	<outline>
		<contour>
			<point x="204" y="69" type="line"/>
			<point x="402" y="69" type="line"/>
			<point x="576" y="500" type="line"/>
			<point x="412" y="500" type="line"/>
			<point x="342" y="292" type="line"/>
			<point x="330" y="250"/>
			<point x="318" y="221"/>
			<point x="306" y="175" type="curve"/>
			<point x="302" y="175" type="line"/>
			<point x="290" y="221"/>
			<point x="278" y="250"/>
			<point x="266" y="292" type="curve"/>
			<point x="196" y="500" type="line"/>
			<point x="24" y="500" type="line"/>
		</contour>
		<contour>
			<point x="304" y="-206" type="curve" smooth="yes"/>
			<point x="411" y="-206"/>
			<point x="482" y="-144"/>
			<point x="482" y="-50" type="curve" smooth="yes"/>
			<point x="482" y="14"/>
			<point x="443" y="54"/>
			<point x="386" y="152" type="curve"/>
			<point x="222" y="152" type="line"/>
			<point x="165" y="54"/>
			<point x="126" y="14"/>
			<point x="126" y="-50" type="curve" smooth="yes"/>
			<point x="126" y="-144"/>
			<point x="197" y="-206"/>
		</contour>
		<contour>
			<point x="304" y="-100" type="curve" smooth="yes"/>
			<point x="282" y="-100"/>
			<point x="264" y="-82"/>
			<point x="264" y="-52" type="curve" smooth="yes"/>
			<point x="264" y="-30"/>
			<point x="276" y="-10"/>
			<point x="300" y="30" type="curve"/>
			<point x="305" y="30" type="line"/>
			<point x="332" y="-11"/>
			<point x="344" y="-30"/>
			<point x="344" y="-52" type="curve" smooth="yes"/>
			<point x="344" y="-82"/>
			<point x="327" y="-100"/>
		</contour>
		<contour>
			<point name="aboveLC" x="300" y="520" type="move"/>
		</contour>
		<contour>
			<point name="belowLC" x="300" y="-218" type="move"/>
		</contour>
	</outline>
</glyph>
<glyph name="henghook" format="1">
	<unicode hex="0267"/>
	<advance width="600"/>
	<outline>
		<contour>
			<point x="352" y="-188" type="curve" smooth="yes"/>
			<point x="502" y="-188"/>
			<point x="546" y="-86"/>
			<point x="546" y="26" type="curve"/>
			<point x="546" y="288" type="line" smooth="yes"/>
			<point x="546" y="412"/>
			<point x="498" y="492"/>
			<point x="388" y="492" type="curve" smooth="yes"/>
			<point x="314" y="492"/>
			<point x="262" y="458"/>
			<point x="230" y="426" type="curve"/>
			<point x="226" y="426" type="line"/>
			<point x="236" y="500" type="line"/>
			<point x="242" y="556"/>
			<point x="268" y="574"/>
			<point x="320" y="574" type="curve" smooth="yes"/>
			<point x="340" y="574"/>
			<point x="363" y="567"/>
			<point x="384" y="560" type="curve"/>
			<point x="414" y="686" type="line"/>
			<point x="389" y="695"/>
			<point x="347" y="708"/>
			<point x="294" y="708" type="curve" smooth="yes"/>
			<point x="124" y="708"/>
			<point x="64" y="603"/>
			<point x="64" y="486" type="curve"/>
			<point x="64" y="0" type="line"/>
			<point x="236" y="0" type="line"/>
			<point x="236" y="308" type="line"/>
			<point x="262" y="332"/>
			<point x="284" y="346"/>
			<point x="316" y="346" type="curve" smooth="yes"/>
			<point x="360" y="346"/>
			<point x="374" y="322"/>
			<point x="374" y="266" type="curve" smooth="yes"/>
			<point x="374" y="20" type="line"/>
			<point x="374" y="-34"/>
			<point x="360" y="-54"/>
			<point x="324" y="-54" type="curve" smooth="yes"/>
			<point x="312" y="-54"/>
			<point x="302" y="-52"/>
			<point x="288" y="-48" type="curve"/>
			<point x="258" y="-174" type="line"/>
			<point x="280" y="-182"/>
			<point x="306" y="-188"/>
		</contour>
		<contour>
			<point name="aboveUC" x="290" y="730" type="move"/>
		</contour>
		<contour>
			<point name="belowLC" x="310" y="-200" type="move"/>
		</contour>
	</outline>
</glyph>
<glyph name="lmiddletilde" format="1">
	<unicode hex="026B"/>
	<advance width="600"/>
	<outline>
		<component base="l"/>
		<component base="tildeoverlaycmb" xOffset="-26" yOffset="110"/>
		<contour>
			<point name="aboveUC" x="270" y="730" type="move"/>
		</contour>
		<contour>
			<point name="belowLC" x="360" y="-20" type="move"/>
		</contour>
	</outline>
</glyph>
<glyph name="rhookturned" format="1">
	<unicode hex="027B"/>
	<advance width="600"/>
	<outline>
		<contour>
			<point x="476" y="-188" type="curve" smooth="yes"/>
			<point x="522" y="-188"/>
			<point x="552" y="-178"/>
			<point x="578" y="-168" type="curve"/>
			<point x="542" y="-44" type="line"/>
			<point x="530" y="-50"/>
			<point x="516" y="-54"/>
			<point x="504" y="-54" type="curve" smooth="yes"/>
			<point x="470" y="-54"/>
			<point x="458" y="-38"/>
			<point x="458" y="10" type="curve"/>
			<point x="458" y="500" type="line"/>
			<point x="286" y="500" type="line"/>
			<point x="286" y="242" type="line"/>
			<point x="256" y="164"/>
			<point x="190" y="138"/>
			<point x="148" y="138" type="curve" smooth="yes"/>
			<point x="123" y="138"/>
			<point x="104" y="142"/>
			<point x="82" y="152" type="curve"/>
			<point x="48" y="8" type="line"/>
			<point x="76" y="-6"/>
			<point x="106" y="-12"/>
			<point x="130" y="-12" type="curve" smooth="yes"/>
			<point x="194" y="-12"/>
			<point x="262" y="22"/>
			<point x="302" y="96" type="curve"/>
			<point x="306" y="96" type="line"/>
			<point x="306" y="-10" type="line" smooth="yes"/>
			<point x="306" y="-102"/>
			<point x="344" y="-188"/>
		</contour>
		<contour>
			<point name="aboveLC" x="370" y="520" type="move"/>
		</contour>
		<contour>
			<point name="belowLC" x="310" y="-200" type="move"/>
		</contour>
	</outline>
</glyph>
<glyph name="rtail" format="2">
	<unicode hex="027D"/>
	<advance width="600"/>
	<outline>
		<contour>
			<point x="328" y="-188" type="curve" smooth="yes"/>
			<point x="396" y="-188"/>
			<point x="450" y="-174"/>
			<point x="494" y="-162" type="curve"/>
			<point x="464" y="-38" type="line"/>
			<point x="437" y="-47"/>
			<point x="407" y="-54"/>
			<point x="373" y="-54" type="curve" smooth="yes"/>
			<point x="309" y="-54"/>
			<point x="276" y="-32"/>
			<point x="276" y="39" type="curve"/>
			<point x="276" y="248" type="line"/>
			<point x="313" y="332"/>
			<point x="374" y="362"/>
			<point x="431" y="362" type="curve" smooth="yes"/>
			<point x="467" y="362"/>
			<point x="488" y="357"/>
			<point x="518" y="348" type="curve"/>
			<point x="552" y="492" type="line"/>
			<point x="524" y="504"/>
			<point x="503" y="512"/>
			<point x="457" y="512" type="curve" smooth="yes"/>
			<point x="382" y="512"/>
			<point x="310" y="476"/>
			<point x="262" y="394" type="curve"/>
			<point x="258" y="394" type="line"/>
			<point x="245" y="500" type="line"/>
			<point x="104" y="500" type="line"/>
			<point x="104" y="36" type="line"/>
			<point x="104" y="-98"/>
			<point x="164" y="-188"/>
		</contour>
	</outline>
	<anchor name="aboveLC" x="350" y="520"/>
	<anchor name="belowLC" x="290" y="-200"/>
</glyph>
<glyph name="ringhalfrightmod" format="2">
	<unicode hex="02BE"/>
	<advance width="600"/>
	<outline>
		<contour>
			<point x="220" y="538" type="line"/>
			<point x="372" y="534"/>
			<point x="426" y="596"/>
			<point x="426" y="686" type="curve" smooth="yes"/>
			<point x="426" y="776"/>
			<point x="372" y="838"/>
			<point x="220" y="834" type="curve"/>
			<point x="220" y="744" type="line"/>
			<point x="280" y="744"/>
			<point x="304" y="724"/>
			<point x="304" y="686" type="curve" smooth="yes"/>
			<point x="304" y="648"/>
			<point x="280" y="628"/>
			<point x="220" y="628" type="curve"/>
		</contour>
	</outline>
</glyph>
<glyph name="ringhalfleftmod" format="1">
	<unicode hex="02BF"/>
	<advance width="600"/>
	<outline>
		<contour>
			<point x="380" y="538" type="curve"/>
			<point x="380" y="628" type="line"/>
			<point x="320" y="628"/>
			<point x="296" y="648"/>
			<point x="296" y="686" type="curve" smooth="yes"/>
			<point x="296" y="724"/>
			<point x="320" y="744"/>
			<point x="380" y="744" type="curve"/>
			<point x="380" y="834" type="line"/>
			<point x="228" y="838"/>
			<point x="174" y="776"/>
			<point x="174" y="686" type="curve" smooth="yes"/>
			<point x="174" y="596"/>
			<point x="228" y="534"/>
		</contour>
	</outline>
</glyph>
<glyph name="circumflexcmb" format="1">
	<unicode hex="0302"/>
	<advance width="600"/>
	<outline>
		<contour>
			<point x="170" y="558" type="line"/>
			<point x="298" y="642" type="line"/>
			<point x="302" y="642" type="line"/>
			<point x="430" y="558" type="line"/>
			<point x="494" y="618" type="line"/>
			<point x="388" y="746" type="line"/>
			<point x="212" y="746" type="line"/>
			<point x="106" y="618" type="line"/>
		</contour>
		<contour>
			<point name="_aboveLC" x="300" y="520" type="move"/>
		</contour>
		<contour>
			<point name="aboveLC" x="300" y="740" type="move"/>
		</contour>
	</outline>
</glyph>
<glyph name="candrabinducmb" format="1">
	<unicode hex="0310"/>
	<advance width="600"/>
	<outline>
		<contour>
			<point x="300" y="572" type="curve" smooth="yes"/>
			<point x="422" y="572"/>
			<point x="484" y="638"/>
			<point x="488" y="732" type="curve"/>
			<point x="402" y="748" type="line"/>
			<point x="395" y="702"/>
			<point x="357" y="668"/>
			<point x="300" y="668" type="curve" smooth="yes"/>
			<point x="242" y="668"/>
			<point x="205" y="702"/>
			<point x="198" y="748" type="curve"/>
			<point x="112" y="732" type="line"/>
			<point x="116" y="638"/>
			<point x="178" y="572"/>
		</contour>
		<contour>
			<point x="300" y="702" type="curve" smooth="yes"/>
			<point x="348" y="702"/>
			<point x="384" y="734"/>
			<point x="384" y="782" type="curve" smooth="yes"/>
			<point x="384" y="830"/>
			<point x="348" y="864"/>
			<point x="300" y="864" type="curve" smooth="yes"/>
			<point x="252" y="864"/>
			<point x="216" y="830"/>
			<point x="216" y="782" type="curve" smooth="yes"/>
			<point x="216" y="734"/>
			<point x="252" y="702"/>
		</contour>
		<contour>
			<point name="_aboveLC" x="300" y="520" type="move"/>
		</contour>
	</outline>
</glyph>
<glyph name="leftangleabovecmb" format="1">
	<unicode hex="031A"/>
	<advance width="600"/>
	<outline>
		<contour>
			<point x="316" y="574" type="line"/>
			<point x="404" y="574" type="line"/>
			<point x="404" y="728" type="line"/>
			<point x="208" y="728" type="line"/>
			<point x="208" y="648" type="line"/>
			<point x="316" y="648" type="line"/>
		</contour>
		<contour>
			<point name="_aboverightLC" x="300" y="520" type="move"/>
		</contour>
	</outline>
</glyph>
<glyph name="minusbelowcmb" format="2">
	<unicode hex="0320"/>
	<advance width="600"/>
	<outline>
		<contour>
			<point x="168" y="-156" type="line"/>
			<point x="432" y="-156" type="line"/>
			<point x="432" y="-76" type="line"/>
			<point x="168" y="-76" type="line"/>
		</contour>
	</outline>
	<anchor name="_belowLC" x="300" y="-20"/>
</glyph>
<glyph name="bridgebelowcmb" format="2">
	<unicode hex="032A"/>
	<advance width="600"/>
	<outline>
		<contour>
			<point x="166" y="-218" type="line"/>
			<point x="252" y="-218" type="line"/>
			<point x="252" y="-156" type="line"/>
			<point x="348" y="-156" type="line"/>
			<point x="348" y="-218" type="line"/>
			<point x="434" y="-218" type="line"/>
			<point x="434" y="-76" type="line"/>
			<point x="166" y="-76" type="line"/>
		</contour>
	</outline>
	<anchor name="_belowLC" x="300" y="-20"/>
</glyph>
<glyph name="seagullbelowcmb" format="1">
	<unicode hex="033C"/>
	<advance width="600"/>
	<outline>
		<contour>
			<point x="195" y="-250" type="line"/>
			<point x="195" y="-193"/>
			<point x="205" y="-179"/>
			<point x="227" y="-179" type="curve" smooth="yes"/>
			<point x="253" y="-179"/>
			<point x="260" y="-200"/>
			<point x="260" y="-225" type="curve" smooth="yes"/>
			<point x="260" y="-248" type="line"/>
			<point x="340" y="-248" type="line"/>
			<point x="340" y="-225" type="line" smooth="yes"/>
			<point x="340" y="-200"/>
			<point x="347" y="-179"/>
			<point x="372" y="-179" type="curve" smooth="yes"/>
			<point x="394" y="-179"/>
			<point x="405" y="-193"/>
			<point x="405" y="-250" type="curve"/>
			<point x="501" y="-238" type="line"/>
			<point x="501" y="-129"/>
			<point x="465" y="-74"/>
			<point x="378" y="-74" type="curve" smooth="yes"/>
			<point x="343" y="-74"/>
			<point x="315" y="-92"/>
			<point x="302" y="-126" type="curve"/>
			<point x="298" y="-126" type="line"/>
			<point x="285" y="-92"/>
			<point x="258" y="-74"/>
			<point x="222" y="-74" type="curve" smooth="yes"/>
			<point x="136" y="-74"/>
			<point x="99" y="-129"/>
			<point x="99" y="-238" type="curve"/>
		</contour>
		<contour>
			<point name="_belowLC" x="300" y="-20" type="move"/>
		</contour>
	</outline>
</glyph>
<glyph name="breveinverteddoublecmb" format="1">
	<unicode hex="0361"/>
	<advance width="600"/>
	<outline>
		<contour>
			<point x="-114" y="580" type="line"/>
			<point x="16" y="652"/>
			<point x="182" y="672"/>
			<point x="300" y="672" type="curve" smooth="yes"/>
			<point x="418" y="672"/>
			<point x="584" y="652"/>
			<point x="714" y="580" type="curve"/>
			<point x="758" y="658" type="line"/>
			<point x="620" y="742"/>
			<point x="456" y="780"/>
			<point x="300" y="780" type="curve" smooth="yes"/>
			<point x="144" y="780"/>
			<point x="-20" y="742"/>
			<point x="-158" y="658" type="curve"/>
		</contour>
	</outline>
</glyph>
<glyph name="Alphatonos" format="1">
	<unicode hex="0386"/>
	<advance width="600"/>
	<outline>
		<contour>
			<point x="60" y="0" type="line"/>
			<point x="236" y="0" type="line"/>
			<point x="292" y="316" type="line" smooth="yes"/>
			<point x="303" y="378"/>
			<point x="310" y="428"/>
			<point x="324" y="502" type="curve"/>
			<point x="328" y="502" type="line"/>
			<point x="343" y="428"/>
			<point x="352" y="378"/>
			<point x="363" y="316" type="curve" smooth="yes"/>
			<point x="418" y="0" type="line"/>
			<point x="600" y="0" type="line"/>
			<point x="434" y="650" type="line"/>
			<point x="226" y="650" type="line"/>
		</contour>
		<contour>
			<point x="201" y="138" type="line"/>
			<point x="457" y="138" type="line"/>
			<point x="457" y="271" type="line"/>
			<point x="201" y="271" type="line"/>
		</contour>
		<component base="tonos.cap" xOffset="-210"/>
	</outline>
</glyph>
<glyph name="Sigma" format="1">
	<unicode hex="03A3"/>
	<advance width="600"/>
	<outline>
		<contour>
			<point x="59" y="0" type="line"/>
			<point x="543" y="0" type="line"/>
			<point x="543" y="144" type="line"/>
			<point x="273" y="144" type="line"/>
			<point x="423" y="332" type="line"/>
			<point x="275" y="506" type="line"/>
			<point x="517" y="506" type="line"/>
			<point x="517" y="650" type="line"/>
			<point x="61" y="650" type="line"/>
			<point x="61" y="546" type="line"/>
			<point x="251" y="328" type="line"/>
			<point x="59" y="104" type="line"/>
		</contour>
	</outline>
</glyph>
<glyph name="theta" format="2">
	<unicode hex="03B8"/>
	<advance width="600"/>
	<outline>
		<contour>
			<point x="300" y="-12" type="curve" smooth="yes"/>
			<point x="449" y="-12"/>
			<point x="552" y="110"/>
			<point x="552" y="350" type="curve" smooth="yes"/>
			<point x="552" y="595"/>
			<point x="449" y="708"/>
			<point x="300" y="708" type="curve" smooth="yes"/>
			<point x="151" y="708"/>
			<point x="48" y="596"/>
			<point x="48" y="350" type="curve" smooth="yes"/>
			<point x="48" y="110"/>
			<point x="151" y="-12"/>
		</contour>
		<contour>
			<point x="300" y="126" type="curve" smooth="yes"/>
			<point x="253" y="126"/>
			<point x="214" y="164"/>
			<point x="214" y="350" type="curve" smooth="yes"/>
			<point x="214" y="544"/>
			<point x="253" y="570"/>
			<point x="300" y="570" type="curve" smooth="yes"/>
			<point x="347" y="570"/>
			<point x="386" y="544"/>
			<point x="386" y="350" type="curve" smooth="yes"/>
			<point x="386" y="164"/>
			<point x="347" y="126"/>
		</contour>
		<contour>
			<point x="140" y="294" type="line"/>
			<point x="460" y="294" type="line"/>
			<point x="460" y="406" type="line"/>
			<point x="140" y="406" type="line"/>
		</contour>
	</outline>
</glyph>
<glyph name="iota" format="1">
	<unicode hex="03B9"/>
	<advance width="600"/>
	<outline>
		<contour>
			<point x="390" y="-12" type="curve" smooth="yes"/>
			<point x="462" y="-12"/>
			<point x="512" y="2"/>
			<point x="546" y="16" type="curve"/>
			<point x="510" y="142" type="line"/>
			<point x="486" y="132"/>
			<point x="454" y="126"/>
			<point x="436" y="126" type="curve" smooth="yes"/>
			<point x="379" y="126"/>
			<point x="352" y="143"/>
			<point x="352" y="200" type="curve" smooth="yes"/>
			<point x="352" y="264"/>
			<point x="360" y="400"/>
			<point x="364" y="500" type="curve"/>
			<point x="54" y="500" type="line"/>
			<point x="54" y="366" type="line"/>
			<point x="190" y="366" type="line"/>
			<point x="190" y="206" type="line" smooth="yes"/>
			<point x="190" y="76"/>
			<point x="233" y="-12"/>
		</contour>
		<contour>
			<point name="aboveLC" x="276" y="520" type="move"/>
		</contour>
	</outline>
</glyph>
<glyph name="theta.a" format="1">
	<unicode hex="03D1"/>
	<advance width="600"/>
	<outline>
		<contour>
			<point x="300" y="-12" type="curve" smooth="yes"/>
			<point x="475" y="-12"/>
			<point x="552" y="126"/>
			<point x="552" y="352" type="curve" smooth="yes"/>
			<point x="552" y="566"/>
			<point x="450" y="708"/>
			<point x="272" y="708" type="curve" smooth="yes"/>
			<point x="143" y="708"/>
			<point x="48" y="620"/>
			<point x="48" y="510" type="curve" smooth="yes"/>
			<point x="48" y="429"/>
			<point x="108" y="270"/>
			<point x="410" y="314" type="curve"/>
			<point x="456" y="424" type="line"/>
			<point x="242" y="378"/>
			<point x="204" y="443"/>
			<point x="204" y="502" type="curve" smooth="yes"/>
			<point x="204" y="536"/>
			<point x="229" y="569"/>
			<point x="280" y="570" type="curve" smooth="yes"/>
			<point x="338" y="572"/>
			<point x="386" y="518"/>
			<point x="386" y="352" type="curve" smooth="yes"/>
			<point x="386" y="168"/>
			<point x="359" y="126"/>
			<point x="306" y="126" type="curve" smooth="yes"/>
			<point x="255" y="126"/>
			<point x="236" y="154"/>
			<point x="236" y="202" type="curve" smooth="yes"/>
			<point x="236" y="224"/>
			<point x="234" y="268"/>
			<point x="226" y="280" type="curve"/>
			<point x="64" y="280" type="line"/>
			<point x="74" y="250"/>
			<point x="74" y="219"/>
			<point x="74" y="177" type="curve" smooth="yes"/>
			<point x="74" y="82"/>
			<point x="132" y="-12"/>
		</contour>
	</outline>
</glyph>
<glyph name="digamma" format="1">
	<unicode hex="03DD"/>
	<advance width="600"/>
	<outline>
		<contour>
			<point x="104" y="-176" type="line"/>
			<point x="278" y="-176" type="line"/>
			<point x="272" y="-68"/>
			<point x="268" y="20"/>
			<point x="268" y="118" type="curve"/>
			<point x="508" y="118" type="line"/>
			<point x="508" y="230" type="line"/>
			<point x="266" y="230" type="line"/>
			<point x="264" y="366" type="line"/>
			<point x="528" y="366" type="line"/>
			<point x="528" y="500" type="line"/>
			<point x="104" y="500" type="line"/>
		</contour>
	</outline>
</glyph>
<glyph name="Zhe" format="1">
	<unicode hex="0416"/>
	<advance width="600"/>
	<outline>
		<contour>
			<point x="0" y="0" type="line"/>
			<point x="154" y="0" type="line"/>
			<point x="204" y="260" type="line"/>
			<point x="232" y="260" type="line"/>
			<point x="232" y="0" type="line"/>
			<point x="368" y="0" type="line"/>
			<point x="368" y="260" type="line"/>
			<point x="396" y="260" type="line"/>
			<point x="446" y="0" type="line"/>
			<point x="600" y="0" type="line"/>
			<point x="478" y="404" type="line"/>
			<point x="368" y="404" type="line"/>
			<point x="368" y="650" type="line"/>
			<point x="232" y="650" type="line"/>
			<point x="232" y="404" type="line"/>
			<point x="122" y="404" type="line"/>
		</contour>
		<contour>
			<point x="108" y="320" type="line"/>
			<point x="234" y="342" type="line"/>
			<point x="184" y="552" type="line" smooth="yes"/>
			<point x="164" y="636"/>
			<point x="116" y="662"/>
			<point x="52" y="662" type="curve" smooth="yes"/>
			<point x="34" y="662"/>
			<point x="16" y="658"/>
			<point x="2" y="654" type="curve"/>
			<point x="28" y="496" type="line"/>
			<point x="35" y="498"/>
			<point x="42" y="500"/>
			<point x="50" y="500" type="curve" smooth="yes"/>
			<point x="68" y="500"/>
			<point x="80" y="486"/>
			<point x="84" y="462" type="curve" smooth="yes"/>
		</contour>
		<contour>
			<point x="492" y="320" type="line"/>
			<point x="516" y="462" type="line" smooth="yes"/>
			<point x="520" y="486"/>
			<point x="532" y="500"/>
			<point x="550" y="500" type="curve" smooth="yes"/>
			<point x="558" y="500"/>
			<point x="565" y="498"/>
			<point x="572" y="496" type="curve"/>
			<point x="598" y="654" type="line"/>
			<point x="584" y="658"/>
			<point x="566" y="662"/>
			<point x="548" y="662" type="curve" smooth="yes"/>
			<point x="484" y="662"/>
			<point x="436" y="636"/>
			<point x="416" y="552" type="curve" smooth="yes"/>
			<point x="366" y="342" type="line"/>
		</contour>
		<contour>
			<point name="aboveUC" x="300" y="670" type="move"/>
		</contour>
	</outline>
</glyph>
<glyph name="Yeru" format="1">
	<unicode hex="042B"/>
	<advance width="600"/>
	<outline>
		<contour>
			<point x="26" y="0" type="line"/>
			<point x="182" y="0" type="line" smooth="yes"/>
			<point x="290" y="0"/>
			<point x="382" y="54"/>
			<point x="382" y="218" type="curve" smooth="yes"/>
			<point x="382" y="366"/>
			<point x="298" y="424"/>
			<point x="186" y="424" type="curve" smooth="yes"/>
			<point x="178" y="424" type="line"/>
			<point x="178" y="650" type="line"/>
			<point x="26" y="650" type="line"/>
		</contour>
		<contour>
			<point x="178" y="136" type="line"/>
			<point x="178" y="288" type="line"/>
			<point x="184" y="288" type="line" smooth="yes"/>
			<point x="221" y="288"/>
			<point x="238" y="264"/>
			<point x="238" y="216" type="curve" smooth="yes"/>
			<point x="238" y="158"/>
			<point x="217" y="136"/>
			<point x="184" y="136" type="curve" smooth="yes"/>
		</contour>
		<contour>
			<point x="422" y="0" type="line"/>
			<point x="574" y="0" type="line"/>
			<point x="574" y="650" type="line"/>
			<point x="422" y="650" type="line"/>
		</contour>
		<contour>
			<point name="aboveUC" x="300" y="670" type="move"/>
		</contour>
	</outline>
</glyph>
<glyph name="Ecyr" format="1">
	<unicode hex="042D"/>
	<advance width="600"/>
	<outline>
		<contour>
			<point x="245" y="-12" type="curve" smooth="yes"/>
			<point x="409" y="-12"/>
			<point x="549" y="86"/>
			<point x="549" y="320" type="curve" smooth="yes"/>
			<point x="549" y="554"/>
			<point x="415" y="662"/>
			<point x="249" y="662" type="curve" smooth="yes"/>
			<point x="161" y="662"/>
			<point x="83" y="622"/>
			<point x="33" y="576" type="curve"/>
			<point x="123" y="466" type="line"/>
			<point x="160" y="496"/>
			<point x="193" y="514"/>
			<point x="239" y="514" type="curve" smooth="yes"/>
			<point x="327" y="514"/>
			<point x="379" y="462"/>
			<point x="379" y="326" type="curve" smooth="yes"/>
			<point x="379" y="186"/>
			<point x="327" y="136"/>
			<point x="243" y="136" type="curve" smooth="yes"/>
			<point x="189" y="136"/>
			<point x="147" y="162"/>
			<point x="115" y="192" type="curve"/>
			<point x="25" y="84" type="line"/>
			<point x="85" y="20"/>
			<point x="161" y="-12"/>
		</contour>
		<contour>
			<point x="167" y="260" type="line"/>
			<point x="449" y="260" type="line"/>
			<point x="449" y="404" type="line"/>
			<point x="167" y="404" type="line"/>
		</contour>
		<contour>
			<point name="aboveUC" x="270" y="670" type="move"/>
		</contour>
	</outline>
</glyph>
<glyph name="zhe" format="1">
	<unicode hex="0436"/>
	<advance width="600"/>
	<outline>
		<contour>
			<point x="0" y="0" type="line"/>
			<point x="154" y="0" type="line"/>
			<point x="204" y="198" type="line"/>
			<point x="238" y="198" type="line"/>
			<point x="238" y="0" type="line"/>
			<point x="362" y="0" type="line"/>
			<point x="362" y="198" type="line"/>
			<point x="396" y="198" type="line"/>
			<point x="446" y="0" type="line"/>
			<point x="600" y="0" type="line"/>
			<point x="478" y="310" type="line"/>
			<point x="362" y="310" type="line"/>
			<point x="362" y="500" type="line"/>
			<point x="238" y="500" type="line"/>
			<point x="238" y="310" type="line"/>
			<point x="122" y="310" type="line"/>
		</contour>
		<contour>
			<point x="114" y="242" type="line"/>
			<point x="234" y="264" type="line"/>
			<point x="184" y="412" type="line" smooth="yes"/>
			<point x="157" y="491"/>
			<point x="109" y="512"/>
			<point x="46" y="512" type="curve" smooth="yes"/>
			<point x="32" y="512"/>
			<point x="20" y="511"/>
			<point x="8" y="506" type="curve"/>
			<point x="28" y="346" type="line"/>
			<point x="34" y="348"/>
			<point x="42" y="350"/>
			<point x="50" y="350" type="curve" smooth="yes"/>
			<point x="68" y="350"/>
			<point x="82" y="342"/>
			<point x="90" y="316" type="curve" smooth="yes"/>
		</contour>
		<contour>
			<point x="486" y="242" type="line"/>
			<point x="510" y="316" type="line" smooth="yes"/>
			<point x="518" y="342"/>
			<point x="532" y="350"/>
			<point x="550" y="350" type="curve" smooth="yes"/>
			<point x="558" y="350"/>
			<point x="566" y="348"/>
			<point x="572" y="346" type="curve"/>
			<point x="592" y="506" type="line"/>
			<point x="580" y="511"/>
			<point x="568" y="512"/>
			<point x="554" y="512" type="curve" smooth="yes"/>
			<point x="491" y="512"/>
			<point x="443" y="491"/>
			<point x="416" y="412" type="curve" smooth="yes"/>
			<point x="366" y="264" type="line"/>
		</contour>
		<contour>
			<point name="aboveLC" x="300" y="520" type="move"/>
		</contour>
	</outline>
</glyph>
<glyph name="ef" format="1">
	<unicode hex="0444"/>
	<advance width="600"/>
	<outline>
		<contour>
			<point x="230" y="-176" type="line"/>
			<point x="370" y="-176" type="line"/>
			<point x="370" y="-60" type="line"/>
			<point x="364" y="12" type="line"/>
			<point x="386" y="-2"/>
			<point x="408" y="-12"/>
			<point x="434" y="-12" type="curve" smooth="yes"/>
			<point x="510" y="-12"/>
			<point x="582" y="86"/>
			<point x="582" y="258" type="curve" smooth="yes"/>
			<point x="582" y="412"/>
			<point x="528" y="512"/>
			<point x="448" y="512" type="curve" smooth="yes"/>
			<point x="419" y="512"/>
			<point x="389" y="497"/>
			<point x="364" y="483" type="curve"/>
			<point x="370" y="560" type="line"/>
			<point x="370" y="696" type="line"/>
			<point x="230" y="696" type="line"/>
			<point x="230" y="560" type="line"/>
			<point x="236" y="488" type="line"/>
			<point x="216" y="500"/>
			<point x="195" y="512"/>
			<point x="162" y="512" type="curve" smooth="yes"/>
			<point x="91" y="512"/>
			<point x="18" y="414"/>
			<point x="18" y="250" type="curve" smooth="yes"/>
			<point x="18" y="88"/>
			<point x="74" y="-12"/>
			<point x="162" y="-12" type="curve" smooth="yes"/>
			<point x="188" y="-12"/>
			<point x="213" y="2"/>
			<point x="236" y="15" type="curve"/>
			<point x="230" y="-60" type="line"/>
		</contour>
		<contour>
			<point x="212" y="128" type="curve" smooth="yes"/>
			<point x="183" y="128"/>
			<point x="164" y="162"/>
			<point x="164" y="252" type="curve" smooth="yes"/>
			<point x="164" y="340"/>
			<point x="186" y="372"/>
			<point x="208" y="372" type="curve" smooth="yes"/>
			<point x="218" y="372"/>
			<point x="229" y="366"/>
			<point x="236" y="358" type="curve"/>
			<point x="236" y="144" type="line"/>
			<point x="229" y="133"/>
			<point x="222" y="128"/>
		</contour>
		<contour>
			<point x="388" y="128" type="curve" smooth="yes"/>
			<point x="380" y="128"/>
			<point x="372" y="134"/>
			<point x="364" y="142" type="curve"/>
			<point x="364" y="356" type="line"/>
			<point x="373" y="365"/>
			<point x="382" y="372"/>
			<point x="392" y="372" type="curve" smooth="yes"/>
			<point x="422" y="372"/>
			<point x="436" y="338"/>
			<point x="436" y="256" type="curve" smooth="yes"/>
			<point x="436" y="160"/>
			<point x="416" y="128"/>
		</contour>
	</outline>
</glyph>
<glyph name="tse" format="1">
	<unicode hex="0446"/>
	<advance width="600"/>
	<outline>
		<contour>
			<point x="64" y="0" type="line"/>
			<point x="510" y="0" type="line"/>
			<point x="510" y="500" type="line"/>
			<point x="338" y="500" type="line"/>
			<point x="338" y="134" type="line"/>
			<point x="236" y="134" type="line"/>
			<point x="236" y="500" type="line"/>
			<point x="64" y="500" type="line"/>
		</contour>
		<contour>
			<point x="428" y="-172" type="line"/>
			<point x="576" y="-172" type="line"/>
			<point x="592" y="20" type="line"/>
			<point x="592" y="134" type="line"/>
			<point x="400" y="134" type="line"/>
			<point x="400" y="0" type="line"/>
			<point x="428" y="0" type="line"/>
		</contour>
		<contour>
			<point name="aboveLC" x="290" y="520" type="move"/>
		</contour>
	</outline>
</glyph>
<glyph name="Ghestroke" format="1">
	<unicode hex="0492"/>
	<advance width="600"/>
	<outline>
		<contour>
			<point x="120" y="0" type="line"/>
			<point x="292" y="0" type="line"/>
			<point x="292" y="506" type="line"/>
			<point x="538" y="506" type="line"/>
			<point x="538" y="650" type="line"/>
			<point x="120" y="650" type="line"/>
		</contour>
		<contour>
			<point x="46" y="274" type="line"/>
			<point x="428" y="274" type="line"/>
			<point x="428" y="354" type="line"/>
			<point x="122" y="354" type="line"/>
			<point x="46" y="348" type="line"/>
		</contour>
	</outline>
</glyph>
<glyph name="ustraight" format="1">
	<unicode hex="04AF"/>
	<advance width="600"/>
	<outline>
		<contour>
			<point x="218" y="-176" type="line"/>
			<point x="390" y="-176" type="line"/>
			<point x="390" y="-10" type="line"/>
			<point x="576" y="500" type="line"/>
			<point x="412" y="500" type="line"/>
			<point x="344" y="288" type="line"/>
			<point x="328" y="234"/>
			<point x="318" y="192"/>
			<point x="306" y="142" type="curve"/>
			<point x="302" y="142" type="line"/>
			<point x="290" y="192"/>
			<point x="280" y="234"/>
			<point x="264" y="288" type="curve"/>
			<point x="196" y="500" type="line"/>
			<point x="24" y="500" type="line"/>
			<point x="218" y="-10" type="line"/>
		</contour>
	</outline>
</glyph>
<glyph name="Ustraightstroke" format="1">
	<unicode hex="04B0"/>
	<advance width="600"/>
	<outline>
		<contour>
			<point x="72" y="204" type="line"/>
			<point x="528" y="204" type="line"/>
			<point x="528" y="284" type="line"/>
			<point x="168" y="284" type="line"/>
			<point x="72" y="278" type="line"/>
		</contour>
		<component base="Ustraight"/>
		<contour>
			<point name="aboveUC" x="300" y="670" type="move"/>
		</contour>
	</outline>
</glyph>
<glyph name="Hadescender" format="1">
	<unicode hex="04B2"/>
	<advance width="600"/>
	<outline>
		<contour>
			<point x="466" y="-188" type="line"/>
			<point x="596" y="-188" type="line"/>
			<point x="610" y="36" type="line"/>
			<point x="610" y="144" type="line"/>
			<point x="432" y="144" type="line"/>
			<point x="432" y="0" type="line"/>
			<point x="466" y="0" type="line"/>
		</contour>
		<component base="Ha"/>
	</outline>
</glyph>
<glyph name="endash" format="1">
	<unicode hex="2013"/>
	<advance width="600"/>
	<outline>
		<contour>
			<point x="80" y="192" type="line"/>
			<point x="520" y="192" type="line"/>
			<point x="520" y="318" type="line"/>
			<point x="80" y="318" type="line"/>
		</contour>
	</outline>
</glyph>
<glyph name="exclamquestion" format="1">
	<unicode hex="2049"/>
	<advance width="600"/>
	<outline>
		<contour>
			<point x="348" y="264" type="curve"/>
			<point x="488" y="264" type="line"/>
			<point x="476" y="366"/>
			<point x="584" y="403"/>
			<point x="584" y="546" type="curve" smooth="yes"/>
			<point x="584" y="630"/>
			<point x="514" y="682"/>
			<point x="430" y="682" type="curve" smooth="yes"/>
			<point x="380" y="682"/>
			<point x="326" y="664"/>
			<point x="286" y="626" type="curve"/>
			<point x="360" y="528" type="line"/>
			<point x="372" y="540"/>
			<point x="380" y="544"/>
			<point x="394" y="544" type="curve" smooth="yes"/>
			<point x="407" y="544"/>
			<point x="420" y="534"/>
			<point x="420" y="510" type="curve" smooth="yes"/>
			<point x="420" y="440"/>
			<point x="326" y="382"/>
		</contour>
		<contour>
			<point x="426" y="-12" type="curve" smooth="yes"/>
			<point x="490" y="-12"/>
			<point x="536" y="35"/>
			<point x="536" y="99" type="curve" smooth="yes"/>
			<point x="536" y="163"/>
			<point x="490" y="208"/>
			<point x="426" y="208" type="curve" smooth="yes"/>
			<point x="362" y="208"/>
			<point x="316" y="163"/>
			<point x="316" y="99" type="curve" smooth="yes"/>
			<point x="316" y="35"/>
			<point x="362" y="-12"/>
		</contour>
		<component base="exclam" xOffset="-140"/>
	</outline>
</glyph>
<glyph name="naira" format="1">
	<unicode hex="20A6"/>
	<advance width="600"/>
	<outline>
		<contour>
			<point x="88" y="0" type="line"/>
			<point x="210" y="0" type="line"/>
			<point x="210" y="254" type="line"/>
			<point x="178" y="511" type="line"/>
			<point x="182" y="511" type="line"/>
			<point x="236" y="346" type="line"/>
			<point x="356" y="0" type="line"/>
			<point x="512" y="0" type="line"/>
			<point x="512" y="634" type="line"/>
			<point x="390" y="634" type="line"/>
			<point x="390" y="380" type="line"/>
			<point x="422" y="123" type="line"/>
			<point x="418" y="123" type="line"/>
			<point x="364" y="288" type="line"/>
			<point x="244" y="634" type="line"/>
			<point x="88" y="634" type="line"/>
		</contour>
		<contour>
			<point x="20" y="340" type="line"/>
			<point x="580" y="340" type="line"/>
			<point x="580" y="404" type="line"/>
			<point x="88" y="404" type="line"/>
			<point x="20" y="398" type="line"/>
		</contour>
		<contour>
			<point x="20" y="232" type="line"/>
			<point x="580" y="232" type="line"/>
			<point x="580" y="296" type="line"/>
			<point x="88" y="296" type="line"/>
			<point x="20" y="290" type="line"/>
		</contour>
	</outline>
</glyph>
<glyph name="liraturkish" format="1">
	<unicode hex="20BA"/>
	<advance width="600"/>
	<outline>
		<contour>
			<point x="106" y="-12" type="line"/>
			<point x="396" y="-20"/>
			<point x="556" y="84"/>
			<point x="556" y="271" type="curve" smooth="yes"/>
			<point x="556" y="280"/>
			<point x="554" y="301"/>
			<point x="549" y="320" type="curve"/>
			<point x="408" y="288" type="line"/>
			<point x="411" y="275"/>
			<point x="411" y="267"/>
			<point x="411" y="264" type="curve" smooth="yes"/>
			<point x="411" y="206"/>
			<point x="354" y="157"/>
			<point x="278" y="148" type="curve"/>
			<point x="278" y="288" type="line"/>
			<point x="449" y="372" type="line"/>
			<point x="409" y="444" type="line"/>
			<point x="278" y="380" type="line"/>
			<point x="278" y="428" type="line"/>
			<point x="449" y="512" type="line"/>
			<point x="409" y="584" type="line"/>
			<point x="278" y="520" type="line"/>
			<point x="278" y="634" type="line"/>
			<point x="106" y="634" type="line"/>
			<point x="106" y="436" type="line"/>
			<point x="8" y="388" type="line"/>
			<point x="48" y="316" type="line"/>
			<point x="106" y="344" type="line"/>
			<point x="106" y="296" type="line"/>
			<point x="8" y="248" type="line"/>
			<point x="48" y="176" type="line"/>
			<point x="106" y="204" type="line"/>
		</contour>
	</outline>
</glyph>
<glyph name="careof" format="1">
	<unicode hex="2105"/>
	<advance width="600"/>
	<outline>
		<contour>
			<point x="174" y="308" type="curve" smooth="yes"/>
			<point x="210" y="308"/>
			<point x="250" y="322"/>
			<point x="286" y="350" type="curve"/>
			<point x="240" y="420" type="line"/>
			<point x="224" y="408"/>
			<point x="209" y="398"/>
			<point x="190" y="398" type="curve" smooth="yes"/>
			<point x="160" y="398"/>
			<point x="140" y="428"/>
			<point x="140" y="476" type="curve" smooth="yes"/>
			<point x="140" y="526"/>
			<point x="159" y="556"/>
			<point x="190" y="556" type="curve" smooth="yes"/>
			<point x="202" y="556"/>
			<point x="213" y="551"/>
			<point x="228" y="540" type="curve"/>
			<point x="282" y="608" type="line"/>
			<point x="259" y="629"/>
			<point x="224" y="646"/>
			<point x="183" y="646" type="curve" smooth="yes"/>
			<point x="100" y="646"/>
			<point x="24" y="583"/>
			<point x="24" y="476" type="curve" smooth="yes"/>
			<point x="24" y="370"/>
			<point x="89" y="308"/>
		</contour>
		<component base="fraction" xOffset="1"/>
		<component base="zero.dnom" xOffset="124"/>
	</outline>
</glyph>
<glyph name="arrowdbldown" format="1">
	<unicode hex="21D3"/>
	<advance width="600"/>
	<outline>
		<contour>
			<point x="298" y="-26" type="line"/>
			<point x="302" y="-26" type="line"/>
			<point x="570" y="254" type="line"/>
			<point x="478" y="334" type="line"/>
			<point x="302" y="126" type="line"/>
			<point x="298" y="126" type="line"/>
			<point x="122" y="334" type="line"/>
			<point x="30" y="254" type="line"/>
		</contour>
		<contour>
			<point x="176" y="124" type="line"/>
			<point x="274" y="124" type="line"/>
			<point x="274" y="530" type="line"/>
			<point x="176" y="530" type="line"/>
		</contour>
		<contour>
			<point x="326" y="124" type="line"/>
			<point x="424" y="124" type="line"/>
			<point x="424" y="530" type="line"/>
			<point x="326" y="530" type="line"/>
		</contour>
	</outline>
</glyph>
<glyph name="intersection" format="1">
	<unicode hex="2229"/>
	<advance width="600"/>
	<outline>
		<contour>
			<point x="64" y="90" type="line"/>
			<point x="188" y="90" type="line"/>
			<point x="188" y="332" type="line" smooth="yes"/>
			<point x="188" y="416"/>
			<point x="232" y="462"/>
			<point x="300" y="462" type="curve" smooth="yes"/>
			<point x="368" y="462"/>
			<point x="412" y="416"/>
			<point x="412" y="332" type="curve" smooth="yes"/>
			<point x="412" y="90" type="line"/>
			<point x="536" y="90" type="line"/>
			<point x="536" y="344" type="line" smooth="yes"/>
			<point x="536" y="489"/>
			<point x="436" y="584"/>
			<point x="300" y="584" type="curve" smooth="yes"/>
			<point x="164" y="584"/>
			<point x="64" y="489"/>
			<point x="64" y="344" type="curve" smooth="yes"/>
		</contour>
	</outline>
</glyph>
<glyph name="lessequal" format="2">
	<unicode hex="2264"/>
	<advance width="600"/>
	<outline>
		<contour>
			<point x="64" y="0" type="line"/>
			<point x="536" y="0" type="line"/>
			<point x="536" y="120" type="line"/>
			<point x="64" y="120" type="line"/>
		</contour>
		<contour>
			<point x="536" y="154" type="line"/>
			<point x="536" y="294" type="line"/>
			<point x="378" y="330" type="line"/>
			<point x="238" y="360" type="line"/>
			<point x="238" y="364" type="line"/>
			<point x="378" y="394" type="line"/>
			<point x="536" y="430" type="line"/>
			<point x="536" y="570" type="line"/>
			<point x="64" y="432" type="line"/>
			<point x="64" y="292" type="line"/>
		</contour>
	</outline>
</glyph>
<glyph name="ceilingleft" format="1">
	<unicode hex="231C"/>
	<advance width="600"/>
	<outline>
		<contour>
			<point x="190" y="0" type="line"/>
			<point x="320" y="0" type="line"/>
			<point x="320" y="618" type="line"/>
			<point x="494" y="618" type="line"/>
			<point x="494" y="708" type="line"/>
			<point x="190" y="708" type="line"/>
		</contour>
	</outline>
</glyph>
<glyph name="integralbt" format="1">
	<unicode hex="2321"/>
	<advance width="600"/>
	<outline>
		<contour>
			<point x="175" y="-158" type="curve" smooth="yes"/>
			<point x="348" y="-158"/>
			<point x="382" y="-49"/>
			<point x="382" y="96" type="curve"/>
			<point x="382" y="1000" type="line"/>
			<point x="228" y="1000" type="line"/>
			<point x="228" y="92" type="line"/>
			<point x="228" y="0"/>
			<point x="216" y="-30"/>
			<point x="166" y="-30" type="curve" smooth="yes"/>
			<point x="152" y="-30"/>
			<point x="140" y="-29"/>
			<point x="130" y="-26" type="curve"/>
			<point x="114" y="-150" type="line"/>
			<point x="126" y="-153"/>
			<point x="150" y="-158"/>
		</contour>
	</outline>
</glyph>
<glyph name="lightquaddashhorzbxd" format="1">
	<unicode hex="2508"/>
	<advance width="600"/>
	<outline>
		<contour>
			<point x="469" y="220" type="line"/>
			<point x="581" y="220" type="line"/>
			<point x="581" y="380" type="line"/>
			<point x="469" y="380" type="line"/>
		</contour>
		<contour>
			<point x="319" y="220" type="line"/>
			<point x="431" y="220" type="line"/>
			<point x="431" y="380" type="line"/>
			<point x="319" y="380" type="line"/>
		</contour>
		<contour>
			<point x="169" y="220" type="line"/>
			<point x="281" y="220" type="line"/>
			<point x="281" y="380" type="line"/>
			<point x="169" y="380" type="line"/>
		</contour>
		<contour>
			<point x="19" y="220" type="line"/>
			<point x="131" y="220" type="line"/>
			<point x="131" y="380" type="line"/>
			<point x="19" y="380" type="line"/>
		</contour>
	</outline>
</glyph>
<glyph name="dnheavyleftlightbxd" format="1">
	<unicode hex="2512"/>
	<advance width="600"/>
	<outline>
		<contour>
			<point x="460" y="-400" type="line"/>
			<point x="460" y="380" type="line"/>
			<point x="-80" y="380" type="line"/>
			<point x="-80" y="220" type="line"/>
			<point x="140" y="220" type="line"/>
			<point x="140" y="-400" type="line"/>
		</contour>
	</outline>
</glyph>
<glyph name="heavyuprightbxd" format="1">
	<unicode hex="2517"/>
	<advance width="600"/>
	<outline>
		<contour>
			<point x="140" y="140" type="line"/>
			<point x="680" y="140" type="line"/>
			<point x="680" y="460" type="line"/>
			<point x="460" y="460" type="line"/>
			<point x="460" y="1000" type="line"/>
			<point x="140" y="1000" type="line"/>
		</contour>
	</outline>
</glyph>
<glyph name="squareblack" format="2">
	<unicode hex="25A0"/>
	<advance width="600"/>
	<outline>
		<contour>
			<point x="66" y="96" type="line"/>
			<point x="534" y="96" type="line"/>
			<point x="534" y="564" type="line"/>
			<point x="66" y="564" type="line"/>
		</contour>
	</outline>
</glyph>
<glyph name="circledotted" format="1">
	<unicode hex="25CC"/>
	<advance width="600"/>
	<outline>
		<contour>
			<point x="299" y="-13" type="curve" smooth="yes"/>
			<point x="326" y="-13"/>
			<point x="344" y="4"/>
			<point x="344" y="34" type="curve" smooth="yes"/>
			<point x="344" y="62"/>
			<point x="325" y="78"/>
			<point x="299" y="78" type="curve" smooth="yes"/>
			<point x="276" y="78"/>
			<point x="256" y="62"/>
			<point x="256" y="34" type="curve" smooth="yes"/>
			<point x="256" y="4"/>
			<point x="276" y="-13"/>
		</contour>
		<contour>
			<point x="194" y="14" type="curve" smooth="yes"/>
			<point x="220" y="14"/>
			<point x="239" y="31"/>
			<point x="239" y="61" type="curve" smooth="yes"/>
			<point x="239" y="89"/>
			<point x="218" y="105"/>
			<point x="194" y="105" type="curve" smooth="yes"/>
			<point x="170" y="105"/>
			<point x="149" y="89"/>
			<point x="149" y="61" type="curve" smooth="yes"/>
			<point x="149" y="31"/>
			<point x="170" y="14"/>
		</contour>
		<contour>
			<point x="404" y="14" type="curve" smooth="yes"/>
			<point x="432" y="14"/>
			<point x="450" y="31"/>
			<point x="450" y="61" type="curve" smooth="yes"/>
			<point x="450" y="89"/>
			<point x="429" y="105"/>
			<point x="404" y="105" type="curve" smooth="yes"/>
			<point x="381" y="105"/>
			<point x="360" y="89"/>
			<point x="360" y="61" type="curve" smooth="yes"/>
			<point x="360" y="31"/>
			<point x="381" y="14"/>
		</contour>
		<contour>
			<point x="116" y="96" type="curve" smooth="yes"/>
			<point x="143" y="96"/>
			<point x="161" y="112"/>
			<point x="161" y="141" type="curve" smooth="yes"/>
			<point x="161" y="170"/>
			<point x="142" y="187"/>
			<point x="116" y="187" type="curve" smooth="yes"/>
			<point x="94" y="187"/>
			<point x="73" y="170"/>
			<point x="73" y="141" type="curve" smooth="yes"/>
			<point x="73" y="112"/>
			<point x="94" y="96"/>
		</contour>
		<contour>
			<point x="484" y="96" type="curve" smooth="yes"/>
			<point x="510" y="96"/>
			<point x="528" y="112"/>
			<point x="528" y="141" type="curve" smooth="yes"/>
			<point x="528" y="170"/>
			<point x="508" y="187"/>
			<point x="484" y="187" type="curve" smooth="yes"/>
			<point x="459" y="187"/>
			<point x="438" y="170"/>
			<point x="438" y="141" type="curve" smooth="yes"/>
			<point x="438" y="112"/>
			<point x="459" y="96"/>
		</contour>
		<contour>
			<point x="88" y="204" type="curve" smooth="yes"/>
			<point x="116" y="204"/>
			<point x="134" y="221"/>
			<point x="134" y="251" type="curve" smooth="yes"/>
			<point x="134" y="279"/>
			<point x="114" y="295"/>
			<point x="88" y="295" type="curve" smooth="yes"/>
			<point x="65" y="295"/>
			<point x="44" y="279"/>
			<point x="44" y="251" type="curve" smooth="yes"/>
			<point x="44" y="221"/>
			<point x="65" y="204"/>
		</contour>
		<contour>
			<point x="510" y="204" type="curve" smooth="yes"/>
			<point x="536" y="204"/>
			<point x="555" y="221"/>
			<point x="555" y="251" type="curve" smooth="yes"/>
			<point x="555" y="279"/>
			<point x="534" y="295"/>
			<point x="510" y="295" type="curve" smooth="yes"/>
			<point x="485" y="295"/>
			<point x="465" y="279"/>
			<point x="465" y="251" type="curve" smooth="yes"/>
			<point x="465" y="221"/>
			<point x="485" y="204"/>
		</contour>
		<contour>
			<point x="116" y="313" type="curve" smooth="yes"/>
			<point x="143" y="313"/>
			<point x="161" y="331"/>
			<point x="161" y="360" type="curve" smooth="yes"/>
			<point x="161" y="390"/>
			<point x="142" y="405"/>
			<point x="116" y="405" type="curve" smooth="yes"/>
			<point x="94" y="405"/>
			<point x="73" y="390"/>
			<point x="73" y="360" type="curve" smooth="yes"/>
			<point x="73" y="331"/>
			<point x="94" y="313"/>
		</contour>
		<contour>
			<point x="484" y="313" type="curve" smooth="yes"/>
			<point x="510" y="313"/>
			<point x="528" y="330"/>
			<point x="528" y="359" type="curve" smooth="yes"/>
			<point x="528" y="388"/>
			<point x="508" y="404"/>
			<point x="484" y="404" type="curve" smooth="yes"/>
			<point x="459" y="404"/>
			<point x="438" y="388"/>
			<point x="438" y="359" type="curve" smooth="yes"/>
			<point x="438" y="330"/>
			<point x="459" y="313"/>
		</contour>
		<contour>
			<point x="194" y="395" type="curve" smooth="yes"/>
			<point x="220" y="395"/>
			<point x="239" y="412"/>
			<point x="239" y="440" type="curve" smooth="yes"/>
			<point x="239" y="470"/>
			<point x="218" y="486"/>
			<point x="194" y="486" type="curve" smooth="yes"/>
			<point x="170" y="486"/>
			<point x="149" y="470"/>
			<point x="149" y="440" type="curve" smooth="yes"/>
			<point x="149" y="412"/>
			<point x="170" y="395"/>
		</contour>
		<contour>
			<point x="404" y="394" type="curve" smooth="yes"/>
			<point x="432" y="394"/>
			<point x="450" y="411"/>
			<point x="450" y="440" type="curve" smooth="yes"/>
			<point x="450" y="469"/>
			<point x="429" y="486"/>
			<point x="404" y="486" type="curve" smooth="yes"/>
			<point x="381" y="486"/>
			<point x="360" y="469"/>
			<point x="360" y="440" type="curve" smooth="yes"/>
			<point x="360" y="411"/>
			<point x="381" y="394"/>
		</contour>
		<contour>
			<point x="299" y="421" type="curve" smooth="yes"/>
			<point x="326" y="421"/>
			<point x="344" y="439"/>
			<point x="344" y="468" type="curve" smooth="yes"/>
			<point x="344" y="496"/>
			<point x="325" y="512"/>
			<point x="299" y="512" type="curve" smooth="yes"/>
			<point x="276" y="512"/>
			<point x="256" y="496"/>
			<point x="256" y="468" type="curve" smooth="yes"/>
			<point x="256" y="439"/>
			<point x="276" y="421"/>
		</contour>
		<contour>
			<point name="hornLC" x="418" y="500" type="move"/>
		</contour>
		<contour>
			<point name="center" x="300" y="250" type="move"/>
		</contour>
		<contour>
			<point name="aboverightLC" x="480" y="520" type="move"/>
		</contour>
		<contour>
			<point name="ogonekLC" x="300" y="0" type="move"/>
		</contour>
		<contour>
			<point name="aboveLC" x="300" y="520" type="move"/>
		</contour>
		<contour>
			<point name="baseLC" x="300" y="0" type="move"/>
		</contour>
		<contour>
			<point name="belowLC" x="300" y="-20" type="move"/>
		</contour>
	</outline>
</glyph>
<glyph name="female" format="2">
	<unicode hex="2640"/>
	<advance width="600"/>
	<outline>
		<contour>
			<point x="300" y="216" type="curve" smooth="yes"/>
			<point x="454" y="216"/>
			<point x="560" y="324"/>
			<point x="560" y="462" type="curve" smooth="yes"/>
			<point x="560" y="602"/>
			<point x="454" y="708"/>
			<point x="300" y="708" type="curve" smooth="yes"/>
			<point x="146" y="708"/>
			<point x="40" y="602"/>
			<point x="40" y="462" type="curve" smooth="yes"/>
			<point x="40" y="324"/>
			<point x="146" y="216"/>
		</contour>
		<contour>
			<point x="300" y="322" type="curve" smooth="yes"/>
			<point x="221" y="322"/>
			<point x="166" y="382"/>
			<point x="166" y="462" type="curve" smooth="yes"/>
			<point x="166" y="543"/>
			<point x="221" y="602"/>
			<point x="300" y="602" type="curve" smooth="yes"/>
			<point x="378" y="602"/>
			<point x="432" y="543"/>
			<point x="432" y="462" type="curve" smooth="yes"/>
			<point x="432" y="382"/>
			<point x="378" y="322"/>
		</contour>
		<contour>
			<point x="238" y="-60" type="line"/>
			<point x="362" y="-60" type="line"/>
			<point x="362" y="40" type="line"/>
			<point x="496" y="40" type="line"/>
			<point x="496" y="160" type="line"/>
			<point x="362" y="160" type="line"/>
			<point x="362" y="300" type="line"/>
			<point x="238" y="300" type="line"/>
			<point x="238" y="160" type="line"/>
			<point x="104" y="160" type="line"/>
			<point x="104" y="40" type="line"/>
			<point x="238" y="40" type="line"/>
		</contour>
	</outline>
</glyph>
<glyph name="male" format="2">
	<unicode hex="2642"/>
	<advance width="600"/>
	<outline>
		<contour>
			<point x="234" y="-12" type="curve" smooth="yes"/>
			<point x="388" y="-12"/>
			<point x="494" y="94"/>
			<point x="494" y="234" type="curve" smooth="yes"/>
			<point x="494" y="372"/>
			<point x="388" y="480"/>
			<point x="234" y="480" type="curve" smooth="yes"/>
			<point x="80" y="480"/>
			<point x="-26" y="372"/>
			<point x="-26" y="234" type="curve" smooth="yes"/>
			<point x="-26" y="94"/>
			<point x="80" y="-12"/>
		</contour>
		<contour>
			<point x="234" y="94" type="curve" smooth="yes"/>
			<point x="156" y="94"/>
			<point x="102" y="153"/>
			<point x="102" y="234" type="curve" smooth="yes"/>
			<point x="102" y="314"/>
			<point x="156" y="374"/>
			<point x="234" y="374" type="curve" smooth="yes"/>
			<point x="313" y="374"/>
			<point x="368" y="314"/>
			<point x="368" y="234" type="curve" smooth="yes"/>
			<point x="368" y="153"/>
			<point x="313" y="94"/>
		</contour>
		<contour>
			<point x="410" y="327" type="line"/>
			<point x="530" y="458" type="line"/>
			<point x="522" y="348" type="line"/>
			<point x="634" y="348" type="line"/>
			<point x="636" y="647" type="line"/>
			<point x="633" y="650" type="line"/>
			<point x="334" y="648" type="line"/>
			<point x="334" y="536" type="line"/>
			<point x="444" y="544" type="line"/>
			<point x="313" y="424" type="line"/>
		</contour>
	</outline>
</glyph>
<glyph name="spade" format="2">
	<unicode hex="2660"/>
	<advance width="600"/>
	<outline>
		<contour>
			<point x="92" y="0" type="line"/>
			<point x="508" y="0" type="line"/>
			<point x="508" y="64" type="line"/>
			<point x="408" y="78"/>
			<point x="352" y="128"/>
			<point x="332" y="272" type="curve"/>
			<point x="268" y="272" type="line"/>
			<point x="248" y="128"/>
			<point x="192" y="78"/>
			<point x="92" y="64" type="curve"/>
		</contour>
		<contour>
			<point x="258" y="248" type="curve"/>
			<point x="342" y="248" type="line"/>
			<point x="372" y="180"/>
			<point x="416" y="158"/>
			<point x="468" y="158" type="curve" smooth="yes"/>
			<point x="545" y="158"/>
			<point x="604" y="201"/>
			<point x="604" y="294" type="curve" smooth="yes"/>
			<point x="604" y="414"/>
			<point x="538" y="484"/>
			<point x="302" y="708" type="curve"/>
			<point x="298" y="708" type="line"/>
			<point x="62" y="484"/>
			<point x="-4" y="414"/>
			<point x="-4" y="294" type="curve" smooth="yes"/>
			<point x="-4" y="201"/>
			<point x="55" y="158"/>
			<point x="132" y="158" type="curve" smooth="yes"/>
			<point x="184" y="158"/>
			<point x="228" y="180"/>
		</contour>
	</outline>
</glyph>
<glyph name="diamond" format="2">
	<unicode hex="2666"/>
	<advance width="600"/>
	<outline>
		<contour>
			<point x="302" y="-12" type="line"/>
			<point x="608" y="346" type="line"/>
			<point x="608" y="350" type="line"/>
			<point x="302" y="708" type="line"/>
			<point x="298" y="708" type="line"/>
			<point x="-8" y="350" type="line"/>
			<point x="-8" y="346" type="line"/>
			<point x="298" y="-12" type="line"/>
		</contour>
	</outline>
</glyph>
<glyph name="bracketleftwhite" format="2">
	<unicode hex="27E6"/>
	<advance width="600"/>
	<outline>
		<contour>
			<point x="134" y="-152" type="line"/>
			<point x="494" y="-152" type="line"/>
			<point x="494" y="-62" type="line"/>
			<point x="372" y="-62" type="line"/>
			<point x="372" y="618" type="line"/>
			<point x="494" y="618" type="line"/>
			<point x="494" y="708" type="line"/>
			<point x="134" y="708" type="line"/>
		</contour>
		<contour>
			<point x="232" y="-62" type="line"/>
			<point x="232" y="618" type="line"/>
			<point x="284" y="618" type="line"/>
			<point x="284" y="-62" type="line"/>
		</contour>
	</outline>
</glyph>
<glyph name="brackhalftopleft" format="1">
	<unicode hex="2E22"/>
	<advance width="600"/>
	<outline>
		<contour>
			<point x="191" y="278" type="line"/>
			<point x="320" y="278" type="line"/>
			<point x="320" y="618" type="line"/>
			<point x="494" y="618" type="line"/>
			<point x="494" y="708" type="line"/>
			<point x="191" y="708" type="line"/>
		</contour>
	</outline>
</glyph>
<glyph name="emoji" format="1">
	<unicode hex="FE0F"/>
	<advance width="600"/>
	<outline>
		<contour>
			<point x="300" y="579" type="curve" smooth="yes"/>
			<point x="312" y="579"/>
			<point x="320" y="587"/>
			<point x="320" y="599" type="curve" smooth="yes"/>
			<point x="320" y="611"/>
			<point x="312" y="619"/>
			<point x="300" y="619" type="curve" smooth="yes"/>
			<point x="288" y="619"/>
			<point x="280" y="611"/>
			<point x="280" y="599" type="curve" smooth="yes"/>
			<point x="280" y="587"/>
			<point x="288" y="579"/>
		</contour>
		<contour>
			<point x="41" y="372" type="curve" smooth="yes"/>
			<point x="53" y="372"/>
			<point x="61" y="380"/>
			<point x="61" y="392" type="curve" smooth="yes"/>
			<point x="61" y="404"/>
			<point x="53" y="412"/>
			<point x="41" y="412" type="curve" smooth="yes"/>
			<point x="29" y="412"/>
			<point x="21" y="404"/>
			<point x="21" y="392" type="curve" smooth="yes"/>
			<point x="21" y="380"/>
			<point x="29" y="372"/>
		</contour>
		<contour>
			<point x="58" y="431" type="curve" smooth="yes"/>
			<point x="70" y="431"/>
			<point x="78" y="439"/>
			<point x="78" y="451" type="curve" smooth="yes"/>
			<point x="78" y="463"/>
			<point x="70" y="471"/>
			<point x="58" y="471" type="curve" smooth="yes"/>
			<point x="46" y="471"/>
			<point x="38" y="463"/>
			<point x="38" y="451" type="curve" smooth="yes"/>
			<point x="38" y="439"/>
			<point x="46" y="431"/>
		</contour>
		<contour>
			<point x="91" y="481" type="curve" smooth="yes"/>
			<point x="103" y="481"/>
			<point x="111" y="491"/>
			<point x="111" y="503" type="curve" smooth="yes"/>
			<point x="111" y="513"/>
			<point x="103" y="523"/>
			<point x="91" y="523" type="curve" smooth="yes"/>
			<point x="81" y="523"/>
			<point x="71" y="513"/>
			<point x="71" y="503" type="curve" smooth="yes"/>
			<point x="71" y="491"/>
			<point x="81" y="481"/>
		</contour>
		<contour>
			<point x="134" y="524" type="curve" smooth="yes"/>
			<point x="147" y="524"/>
			<point x="154" y="534"/>
			<point x="154" y="546" type="curve" smooth="yes"/>
			<point x="154" y="558"/>
			<point x="147" y="566"/>
			<point x="134" y="566" type="curve" smooth="yes"/>
			<point x="124" y="566"/>
			<point x="114" y="558"/>
			<point x="114" y="546" type="curve" smooth="yes"/>
			<point x="114" y="534"/>
			<point x="124" y="524"/>
		</contour>
		<contour>
			<point x="186" y="554" type="curve" smooth="yes"/>
			<point x="198" y="554"/>
			<point x="206" y="564"/>
			<point x="206" y="576" type="curve" smooth="yes"/>
			<point x="206" y="588"/>
			<point x="198" y="596"/>
			<point x="186" y="596" type="curve" smooth="yes"/>
			<point x="174" y="596"/>
			<point x="166" y="588"/>
			<point x="166" y="576" type="curve" smooth="yes"/>
			<point x="166" y="564"/>
			<point x="174" y="554"/>
		</contour>
		<contour>
			<point x="242" y="572" type="curve" smooth="yes"/>
			<point x="255" y="572"/>
			<point x="262" y="582"/>
			<point x="262" y="594" type="curve" smooth="yes"/>
			<point x="262" y="606"/>
			<point x="255" y="614"/>
			<point x="242" y="614" type="curve" smooth="yes"/>
			<point x="232" y="614"/>
			<point x="222" y="606"/>
			<point x="222" y="594" type="curve" smooth="yes"/>
			<point x="222" y="582"/>
			<point x="232" y="572"/>
		</contour>
		<contour>
			<point x="565" y="308" type="curve" smooth="yes"/>
			<point x="577" y="308"/>
			<point x="585" y="318"/>
			<point x="585" y="330" type="curve" smooth="yes"/>
			<point x="585" y="342"/>
			<point x="577" y="350"/>
			<point x="565" y="350" type="curve" smooth="yes"/>
			<point x="553" y="350"/>
			<point x="545" y="342"/>
			<point x="545" y="330" type="curve" smooth="yes"/>
			<point x="545" y="318"/>
			<point x="553" y="308"/>
		</contour>
		<contour>
			<point x="559" y="372" type="curve" smooth="yes"/>
			<point x="571" y="372"/>
			<point x="579" y="380"/>
			<point x="579" y="392" type="curve" smooth="yes"/>
			<point x="579" y="404"/>
			<point x="571" y="412"/>
			<point x="559" y="412" type="curve" smooth="yes"/>
			<point x="547" y="412"/>
			<point x="539" y="404"/>
			<point x="539" y="392" type="curve" smooth="yes"/>
			<point x="539" y="380"/>
			<point x="547" y="372"/>
		</contour>
		<contour>
			<point x="542" y="431" type="curve" smooth="yes"/>
			<point x="554" y="431"/>
			<point x="562" y="439"/>
			<point x="562" y="451" type="curve" smooth="yes"/>
			<point x="562" y="463"/>
			<point x="554" y="471"/>
			<point x="542" y="471" type="curve" smooth="yes"/>
			<point x="530" y="471"/>
			<point x="522" y="463"/>
			<point x="522" y="451" type="curve" smooth="yes"/>
			<point x="522" y="439"/>
			<point x="530" y="431"/>
		</contour>
		<contour>
			<point x="509" y="481" type="curve" smooth="yes"/>
			<point x="519" y="481"/>
			<point x="529" y="491"/>
			<point x="529" y="503" type="curve" smooth="yes"/>
			<point x="529" y="513"/>
			<point x="519" y="523"/>
			<point x="509" y="523" type="curve" smooth="yes"/>
			<point x="497" y="523"/>
			<point x="489" y="513"/>
			<point x="489" y="503" type="curve" smooth="yes"/>
			<point x="489" y="491"/>
			<point x="497" y="481"/>
		</contour>
		<contour>
			<point x="466" y="524" type="curve" smooth="yes"/>
			<point x="476" y="524"/>
			<point x="486" y="534"/>
			<point x="486" y="546" type="curve" smooth="yes"/>
			<point x="486" y="558"/>
			<point x="476" y="566"/>
			<point x="466" y="566" type="curve" smooth="yes"/>
			<point x="453" y="566"/>
			<point x="446" y="558"/>
			<point x="446" y="546" type="curve" smooth="yes"/>
			<point x="446" y="534"/>
			<point x="453" y="524"/>
		</contour>
		<contour>
			<point x="414" y="554" type="curve" smooth="yes"/>
			<point x="426" y="554"/>
			<point x="434" y="564"/>
			<point x="434" y="576" type="curve" smooth="yes"/>
			<point x="434" y="588"/>
			<point x="426" y="596"/>
			<point x="414" y="596" type="curve" smooth="yes"/>
			<point x="402" y="596"/>
			<point x="394" y="588"/>
			<point x="394" y="576" type="curve" smooth="yes"/>
			<point x="394" y="564"/>
			<point x="402" y="554"/>
		</contour>
		<contour>
			<point x="358" y="572" type="curve" smooth="yes"/>
			<point x="368" y="572"/>
			<point x="378" y="582"/>
			<point x="378" y="594" type="curve" smooth="yes"/>
			<point x="378" y="606"/>
			<point x="368" y="614"/>
			<point x="358" y="614" type="curve" smooth="yes"/>
			<point x="345" y="614"/>
			<point x="338" y="606"/>
			<point x="338" y="594" type="curve" smooth="yes"/>
			<point x="338" y="582"/>
			<point x="345" y="572"/>
		</contour>
		<contour>
			<point x="300" y="81" type="curve" smooth="yes"/>
			<point x="288" y="81"/>
			<point x="280" y="71"/>
			<point x="280" y="59" type="curve" smooth="yes"/>
			<point x="280" y="48"/>
			<point x="288" y="39"/>
			<point x="300" y="39" type="curve" smooth="yes"/>
			<point x="312" y="39"/>
			<point x="320" y="48"/>
			<point x="320" y="59" type="curve" smooth="yes"/>
			<point x="320" y="71"/>
			<point x="312" y="81"/>
		</contour>
		<contour>
			<point x="35" y="350" type="curve" smooth="yes"/>
			<point x="23" y="350"/>
			<point x="15" y="342"/>
			<point x="15" y="328" type="curve" smooth="yes"/>
			<point x="15" y="318"/>
			<point x="23" y="308"/>
			<point x="35" y="308" type="curve" smooth="yes"/>
			<point x="47" y="308"/>
			<point x="55" y="318"/>
			<point x="55" y="328" type="curve" smooth="yes"/>
			<point x="55" y="342"/>
			<point x="47" y="350"/>
		</contour>
		<contour>
			<point x="41" y="288" type="curve" smooth="yes"/>
			<point x="29" y="288"/>
			<point x="21" y="278"/>
			<point x="21" y="266" type="curve" smooth="yes"/>
			<point x="21" y="255"/>
			<point x="29" y="246"/>
			<point x="41" y="246" type="curve" smooth="yes"/>
			<point x="53" y="246"/>
			<point x="61" y="255"/>
			<point x="61" y="266" type="curve" smooth="yes"/>
			<point x="61" y="278"/>
			<point x="53" y="288"/>
		</contour>
		<contour>
			<point x="58" y="229" type="curve" smooth="yes"/>
			<point x="46" y="229"/>
			<point x="38" y="219"/>
			<point x="38" y="207" type="curve" smooth="yes"/>
			<point x="38" y="197"/>
			<point x="46" y="187"/>
			<point x="58" y="187" type="curve" smooth="yes"/>
			<point x="70" y="187"/>
			<point x="78" y="197"/>
			<point x="78" y="207" type="curve" smooth="yes"/>
			<point x="78" y="219"/>
			<point x="70" y="229"/>
		</contour>
		<contour>
			<point x="91" y="177" type="curve" smooth="yes"/>
			<point x="81" y="177"/>
			<point x="71" y="169"/>
			<point x="71" y="157" type="curve" smooth="yes"/>
			<point x="71" y="145"/>
			<point x="81" y="137"/>
			<point x="91" y="137" type="curve" smooth="yes"/>
			<point x="103" y="137"/>
			<point x="111" y="145"/>
			<point x="111" y="157" type="curve" smooth="yes"/>
			<point x="111" y="169"/>
			<point x="103" y="177"/>
		</contour>
		<contour>
			<point x="134" y="134" type="curve" smooth="yes"/>
			<point x="124" y="134"/>
			<point x="114" y="126"/>
			<point x="114" y="112" type="curve" smooth="yes"/>
			<point x="114" y="102"/>
			<point x="124" y="92"/>
			<point x="134" y="92" type="curve" smooth="yes"/>
			<point x="147" y="92"/>
			<point x="154" y="102"/>
			<point x="154" y="112" type="curve" smooth="yes"/>
			<point x="154" y="126"/>
			<point x="147" y="134"/>
		</contour>
		<contour>
			<point x="186" y="104" type="curve" smooth="yes"/>
			<point x="174" y="104"/>
			<point x="166" y="96"/>
			<point x="166" y="82" type="curve" smooth="yes"/>
			<point x="166" y="72"/>
			<point x="174" y="62"/>
			<point x="186" y="62" type="curve" smooth="yes"/>
			<point x="198" y="62"/>
			<point x="206" y="72"/>
			<point x="206" y="82" type="curve" smooth="yes"/>
			<point x="206" y="96"/>
			<point x="198" y="104"/>
		</contour>
		<contour>
			<point x="242" y="86" type="curve" smooth="yes"/>
			<point x="232" y="86"/>
			<point x="222" y="78"/>
			<point x="222" y="64" type="curve" smooth="yes"/>
			<point x="222" y="54"/>
			<point x="232" y="44"/>
			<point x="242" y="44" type="curve" smooth="yes"/>
			<point x="255" y="44"/>
			<point x="262" y="54"/>
			<point x="262" y="64" type="curve" smooth="yes"/>
			<point x="262" y="78"/>
			<point x="255" y="86"/>
		</contour>
		<contour>
			<point x="559" y="288" type="curve" smooth="yes"/>
			<point x="547" y="288"/>
			<point x="539" y="278"/>
			<point x="539" y="266" type="curve" smooth="yes"/>
			<point x="539" y="255"/>
			<point x="547" y="246"/>
			<point x="559" y="246" type="curve" smooth="yes"/>
			<point x="571" y="246"/>
			<point x="579" y="255"/>
			<point x="579" y="266" type="curve" smooth="yes"/>
			<point x="579" y="278"/>
			<point x="571" y="288"/>
		</contour>
		<contour>
			<point x="542" y="229" type="curve" smooth="yes"/>
			<point x="530" y="229"/>
			<point x="522" y="219"/>
			<point x="522" y="207" type="curve" smooth="yes"/>
			<point x="522" y="197"/>
			<point x="530" y="187"/>
			<point x="542" y="187" type="curve" smooth="yes"/>
			<point x="554" y="187"/>
			<point x="562" y="197"/>
			<point x="562" y="207" type="curve" smooth="yes"/>
			<point x="562" y="219"/>
			<point x="554" y="229"/>
		</contour>
		<contour>
			<point x="509" y="177" type="curve" smooth="yes"/>
			<point x="497" y="177"/>
			<point x="489" y="169"/>
			<point x="489" y="157" type="curve" smooth="yes"/>
			<point x="489" y="145"/>
			<point x="497" y="137"/>
			<point x="509" y="137" type="curve" smooth="yes"/>
			<point x="519" y="137"/>
			<point x="529" y="145"/>
			<point x="529" y="157" type="curve" smooth="yes"/>
			<point x="529" y="169"/>
			<point x="519" y="177"/>
		</contour>
		<contour>
			<point x="466" y="134" type="curve" smooth="yes"/>
			<point x="453" y="134"/>
			<point x="446" y="126"/>
			<point x="446" y="112" type="curve" smooth="yes"/>
			<point x="446" y="102"/>
			<point x="453" y="92"/>
			<point x="466" y="92" type="curve" smooth="yes"/>
			<point x="476" y="92"/>
			<point x="486" y="102"/>
			<point x="486" y="112" type="curve" smooth="yes"/>
			<point x="486" y="126"/>
			<point x="476" y="134"/>
		</contour>
		<contour>
			<point x="414" y="104" type="curve" smooth="yes"/>
			<point x="402" y="104"/>
			<point x="394" y="96"/>
			<point x="394" y="82" type="curve" smooth="yes"/>
			<point x="394" y="72"/>
			<point x="402" y="62"/>
			<point x="414" y="62" type="curve" smooth="yes"/>
			<point x="426" y="62"/>
			<point x="434" y="72"/>
			<point x="434" y="82" type="curve" smooth="yes"/>
			<point x="434" y="96"/>
			<point x="426" y="104"/>
		</contour>
		<contour>
			<point x="358" y="86" type="curve" smooth="yes"/>
			<point x="345" y="86"/>
			<point x="338" y="78"/>
			<point x="338" y="64" type="curve" smooth="yes"/>
			<point x="338" y="54"/>
			<point x="345" y="44"/>
			<point x="358" y="44" type="curve" smooth="yes"/>
			<point x="368" y="44"/>
			<point x="378" y="54"/>
			<point x="378" y="64" type="curve" smooth="yes"/>
			<point x="378" y="78"/>
			<point x="368" y="86"/>
		</contour>
		<contour>
			<point x="300" y="207" type="curve" smooth="yes"/>
			<point x="288" y="207"/>
			<point x="280" y="197"/>
			<point x="280" y="185" type="curve" smooth="yes"/>
			<point x="280" y="174"/>
			<point x="288" y="165"/>
			<point x="300" y="165" type="curve" smooth="yes"/>
			<point x="312" y="165"/>
			<point x="320" y="174"/>
			<point x="320" y="185" type="curve" smooth="yes"/>
			<point x="320" y="197"/>
			<point x="312" y="207"/>
		</contour>
		<contour>
			<point x="444" y="288" type="curve" smooth="yes"/>
			<point x="432" y="288"/>
			<point x="424" y="278"/>
			<point x="424" y="266" type="curve" smooth="yes"/>
			<point x="424" y="255"/>
			<point x="432" y="246"/>
			<point x="444" y="246" type="curve" smooth="yes"/>
			<point x="456" y="246"/>
			<point x="464" y="255"/>
			<point x="464" y="266" type="curve" smooth="yes"/>
			<point x="464" y="278"/>
			<point x="456" y="288"/>
		</contour>
		<contour>
			<point x="409" y="240" type="curve" smooth="yes"/>
			<point x="397" y="240"/>
			<point x="389" y="230"/>
			<point x="389" y="218" type="curve" smooth="yes"/>
			<point x="389" y="207"/>
			<point x="397" y="198"/>
			<point x="409" y="198" type="curve" smooth="yes"/>
			<point x="421" y="198"/>
			<point x="429" y="207"/>
			<point x="429" y="218" type="curve" smooth="yes"/>
			<point x="429" y="230"/>
			<point x="421" y="240"/>
		</contour>
		<contour>
			<point x="358" y="213" type="curve" smooth="yes"/>
			<point x="345" y="213"/>
			<point x="338" y="205"/>
			<point x="338" y="193" type="curve" smooth="yes"/>
			<point x="338" y="181"/>
			<point x="345" y="173"/>
			<point x="358" y="173" type="curve" smooth="yes"/>
			<point x="368" y="173"/>
			<point x="378" y="181"/>
			<point x="378" y="193" type="curve" smooth="yes"/>
			<point x="378" y="205"/>
			<point x="368" y="213"/>
		</contour>
		<contour>
			<point x="156" y="288" type="curve" smooth="yes"/>
			<point x="144" y="288"/>
			<point x="136" y="278"/>
			<point x="136" y="266" type="curve" smooth="yes"/>
			<point x="136" y="255"/>
			<point x="144" y="246"/>
			<point x="156" y="246" type="curve" smooth="yes"/>
			<point x="168" y="246"/>
			<point x="176" y="255"/>
			<point x="176" y="266" type="curve" smooth="yes"/>
			<point x="176" y="278"/>
			<point x="168" y="288"/>
		</contour>
		<contour>
			<point x="191" y="240" type="curve" smooth="yes"/>
			<point x="179" y="240"/>
			<point x="171" y="230"/>
			<point x="171" y="218" type="curve" smooth="yes"/>
			<point x="171" y="207"/>
			<point x="179" y="198"/>
			<point x="191" y="198" type="curve" smooth="yes"/>
			<point x="203" y="198"/>
			<point x="211" y="207"/>
			<point x="211" y="218" type="curve" smooth="yes"/>
			<point x="211" y="230"/>
			<point x="203" y="240"/>
		</contour>
		<contour>
			<point x="242" y="213" type="curve" smooth="yes"/>
			<point x="232" y="213"/>
			<point x="222" y="205"/>
			<point x="222" y="193" type="curve" smooth="yes"/>
			<point x="222" y="181"/>
			<point x="232" y="173"/>
			<point x="242" y="173" type="curve" smooth="yes"/>
			<point x="255" y="173"/>
			<point x="262" y="181"/>
			<point x="262" y="193" type="curve" smooth="yes"/>
			<point x="262" y="205"/>
			<point x="255" y="213"/>
		</contour>
		<contour>
			<point x="222" y="366" type="curve" smooth="yes"/>
			<point x="210" y="366"/>
			<point x="202" y="358"/>
			<point x="202" y="346" type="curve" smooth="yes"/>
			<point x="202" y="334"/>
			<point x="210" y="326"/>
			<point x="222" y="326" type="curve" smooth="yes"/>
			<point x="234" y="326"/>
			<point x="242" y="334"/>
			<point x="242" y="346" type="curve" smooth="yes"/>
			<point x="242" y="358"/>
			<point x="234" y="366"/>
		</contour>
		<contour>
			<point x="262" y="396" type="curve" smooth="yes"/>
			<point x="250" y="396"/>
			<point x="242" y="386"/>
			<point x="242" y="374" type="curve" smooth="yes"/>
			<point x="242" y="364"/>
			<point x="250" y="354"/>
			<point x="262" y="354" type="curve" smooth="yes"/>
			<point x="274" y="354"/>
			<point x="282" y="364"/>
			<point x="282" y="374" type="curve" smooth="yes"/>
			<point x="282" y="386"/>
			<point x="274" y="396"/>
		</contour>
		<contour>
			<point x="222" y="435" type="curve" smooth="yes"/>
			<point x="234" y="435"/>
			<point x="242" y="443"/>
			<point x="242" y="455" type="curve" smooth="yes"/>
			<point x="242" y="467"/>
			<point x="234" y="475"/>
			<point x="222" y="475" type="curve" smooth="yes"/>
			<point x="210" y="475"/>
			<point x="202" y="467"/>
			<point x="202" y="455" type="curve" smooth="yes"/>
			<point x="202" y="443"/>
			<point x="210" y="435"/>
		</contour>
		<contour>
			<point x="262" y="404" type="curve" smooth="yes"/>
			<point x="274" y="404"/>
			<point x="282" y="414"/>
			<point x="282" y="426" type="curve" smooth="yes"/>
			<point x="282" y="436"/>
			<point x="274" y="446"/>
			<point x="262" y="446" type="curve" smooth="yes"/>
			<point x="250" y="446"/>
			<point x="242" y="436"/>
			<point x="242" y="426" type="curve" smooth="yes"/>
			<point x="242" y="414"/>
			<point x="250" y="404"/>
		</contour>
		<contour>
			<point x="182" y="396" type="curve" smooth="yes"/>
			<point x="170" y="396"/>
			<point x="162" y="386"/>
			<point x="162" y="374" type="curve" smooth="yes"/>
			<point x="162" y="364"/>
			<point x="170" y="354"/>
			<point x="182" y="354" type="curve" smooth="yes"/>
			<point x="194" y="354"/>
			<point x="202" y="364"/>
			<point x="202" y="374" type="curve" smooth="yes"/>
			<point x="202" y="386"/>
			<point x="194" y="396"/>
		</contour>
		<contour>
			<point x="182" y="404" type="curve" smooth="yes"/>
			<point x="194" y="404"/>
			<point x="202" y="414"/>
			<point x="202" y="426" type="curve" smooth="yes"/>
			<point x="202" y="436"/>
			<point x="194" y="446"/>
			<point x="182" y="446" type="curve" smooth="yes"/>
			<point x="170" y="446"/>
			<point x="162" y="436"/>
			<point x="162" y="426" type="curve" smooth="yes"/>
			<point x="162" y="414"/>
			<point x="170" y="404"/>
		</contour>
		<contour>
			<point x="378" y="366" type="curve" smooth="yes"/>
			<point x="366" y="366"/>
			<point x="358" y="358"/>
			<point x="358" y="346" type="curve" smooth="yes"/>
			<point x="358" y="334"/>
			<point x="366" y="326"/>
			<point x="378" y="326" type="curve" smooth="yes"/>
			<point x="390" y="326"/>
			<point x="398" y="334"/>
			<point x="398" y="346" type="curve" smooth="yes"/>
			<point x="398" y="358"/>
			<point x="390" y="366"/>
		</contour>
		<contour>
			<point x="338" y="396" type="curve" smooth="yes"/>
			<point x="326" y="396"/>
			<point x="318" y="386"/>
			<point x="318" y="374" type="curve" smooth="yes"/>
			<point x="318" y="364"/>
			<point x="326" y="354"/>
			<point x="338" y="354" type="curve" smooth="yes"/>
			<point x="350" y="354"/>
			<point x="358" y="364"/>
			<point x="358" y="374" type="curve" smooth="yes"/>
			<point x="358" y="386"/>
			<point x="350" y="396"/>
		</contour>
		<contour>
			<point x="378" y="435" type="curve" smooth="yes"/>
			<point x="390" y="435"/>
			<point x="398" y="443"/>
			<point x="398" y="455" type="curve" smooth="yes"/>
			<point x="398" y="467"/>
			<point x="390" y="475"/>
			<point x="378" y="475" type="curve" smooth="yes"/>
			<point x="366" y="475"/>
			<point x="358" y="467"/>
			<point x="358" y="455" type="curve" smooth="yes"/>
			<point x="358" y="443"/>
			<point x="366" y="435"/>
		</contour>
		<contour>
			<point x="338" y="404" type="curve" smooth="yes"/>
			<point x="350" y="404"/>
			<point x="358" y="414"/>
			<point x="358" y="426" type="curve" smooth="yes"/>
			<point x="358" y="436"/>
			<point x="350" y="446"/>
			<point x="338" y="446" type="curve" smooth="yes"/>
			<point x="326" y="446"/>
			<point x="318" y="436"/>
			<point x="318" y="426" type="curve" smooth="yes"/>
			<point x="318" y="414"/>
			<point x="326" y="404"/>
		</contour>
		<contour>
			<point x="418" y="396" type="curve" smooth="yes"/>
			<point x="406" y="396"/>
			<point x="398" y="386"/>
			<point x="398" y="374" type="curve" smooth="yes"/>
			<point x="398" y="364"/>
			<point x="406" y="354"/>
			<point x="418" y="354" type="curve" smooth="yes"/>
			<point x="430" y="354"/>
			<point x="438" y="364"/>
			<point x="438" y="374" type="curve" smooth="yes"/>
			<point x="438" y="386"/>
			<point x="430" y="396"/>
		</contour>
		<contour>
			<point x="418" y="404" type="curve" smooth="yes"/>
			<point x="430" y="404"/>
			<point x="438" y="414"/>
			<point x="438" y="426" type="curve" smooth="yes"/>
			<point x="438" y="436"/>
			<point x="430" y="446"/>
			<point x="418" y="446" type="curve" smooth="yes"/>
			<point x="406" y="446"/>
			<point x="398" y="436"/>
			<point x="398" y="426" type="curve" smooth="yes"/>
			<point x="398" y="414"/>
			<point x="406" y="404"/>
		</contour>
	</outline>
</glyph>
<glyph name="robot" format="2">
	<unicode hex="1F916"/>
	<advance width="600"/>
	<outline>
		<contour>
			<point x="300" y="24" type="curve" smooth="yes"/>
			<point x="478" y="24"/>
			<point x="606" y="137"/>
			<point x="606" y="350" type="curve" smooth="yes"/>
			<point x="606" y="537"/>
			<point x="491" y="636"/>
			<point x="300" y="636" type="curve" smooth="yes"/>
			<point x="109" y="636"/>
			<point x="-6" y="537"/>
			<point x="-6" y="350" type="curve" smooth="yes"/>
			<point x="-6" y="137"/>
			<point x="122" y="24"/>
		</contour>
		<contour>
			<point x="300" y="100" type="curve" smooth="yes"/>
			<point x="170" y="100"/>
			<point x="76" y="178"/>
			<point x="76" y="350" type="curve" smooth="yes"/>
			<point x="76" y="494"/>
			<point x="156" y="560"/>
			<point x="300" y="560" type="curve" smooth="yes"/>
			<point x="444" y="560"/>
			<point x="524" y="494"/>
			<point x="524" y="350" type="curve" smooth="yes"/>
			<point x="524" y="178"/>
			<point x="430" y="100"/>
		</contour>
		<contour>
			<point x="300" y="258" type="curve" smooth="yes"/>
			<point x="418" y="258"/>
			<point x="484" y="282"/>
			<point x="484" y="354" type="curve" smooth="yes"/>
			<point x="484" y="464"/>
			<point x="408" y="514"/>
			<point x="300" y="514" type="curve" smooth="yes"/>
			<point x="192" y="514"/>
			<point x="116" y="464"/>
			<point x="116" y="354" type="curve" smooth="yes"/>
			<point x="116" y="282"/>
			<point x="182" y="258"/>
		</contour>
		<contour>
			<point x="150" y="332" type="line"/>
			<point x="152" y="418"/>
			<point x="176" y="452"/>
			<point x="218" y="452" type="curve" smooth="yes"/>
			<point x="260" y="452"/>
			<point x="284" y="418"/>
			<point x="286" y="332" type="curve"/>
			<point x="254" y="330" type="line"/>
			<point x="252" y="374"/>
			<point x="242" y="392"/>
			<point x="218" y="392" type="curve" smooth="yes"/>
			<point x="194" y="392"/>
			<point x="184" y="374"/>
			<point x="182" y="330" type="curve"/>
		</contour>
		<contour>
			<point x="314" y="332" type="line"/>
			<point x="316" y="418"/>
			<point x="340" y="452"/>
			<point x="382" y="452" type="curve" smooth="yes"/>
			<point x="424" y="452"/>
			<point x="448" y="418"/>
			<point x="450" y="332" type="curve"/>
			<point x="418" y="330" type="line"/>
			<point x="416" y="374"/>
			<point x="406" y="392"/>
			<point x="382" y="392" type="curve" smooth="yes"/>
			<point x="358" y="392"/>
			<point x="348" y="374"/>
			<point x="346" y="330" type="curve"/>
		</contour>
		<contour>
			<point x="300" y="150" type="curve" smooth="yes"/>
			<point x="320" y="150"/>
			<point x="338" y="160"/>
			<point x="338" y="182" type="curve" smooth="yes"/>
			<point x="338" y="198"/>
			<point x="331" y="202"/>
			<point x="300" y="202" type="curve" smooth="yes"/>
			<point x="269" y="202"/>
			<point x="262" y="198"/>
			<point x="262" y="182" type="curve" smooth="yes"/>
			<point x="262" y="160"/>
			<point x="280" y="150"/>
		</contour>
		<contour>
			<point x="60" y="188" type="curve"/>
			<point x="60" y="444" type="line"/>
			<point x="-16" y="444"/>
			<point x="-44" y="420"/>
			<point x="-44" y="348" type="curve" smooth="yes"/>
			<point x="-44" y="238"/>
			<point x="-10" y="188"/>
		</contour>
		<contour>
			<point x="540" y="188" type="line"/>
			<point x="610" y="188"/>
			<point x="644" y="238"/>
			<point x="644" y="348" type="curve" smooth="yes"/>
			<point x="644" y="420"/>
			<point x="616" y="444"/>
			<point x="540" y="444" type="curve"/>
		</contour>
	</outline>
</glyph>
<glyph name="De.a" format="2">
	<advance width="682"/>
	<outline>
		<contour>
			<point x="22" y="-188" type="line"/>
			<point x="176" y="-188" type="line"/>
			<point x="176" y="0" type="line"/>
			<point x="506" y="0" type="line"/>
			<point x="506" y="-188" type="line"/>
			<point x="660" y="-188" type="line"/>
			<point x="674" y="36" type="line"/>
			<point x="674" y="144" type="line"/>
			<point x="8" y="144" type="line"/>
			<point x="8" y="36" type="line"/>
		</contour>
		<component base="Lambda" xOffset="50"/>
	</outline>
</glyph>
<glyph name="Enhook" format="2">
	<advance width="600"/>
	<outline>
		<contour>
			<point x="372" y="-188" type="curve" smooth="yes"/>
			<point x="499" y="-188"/>
			<point x="542" y="-86"/>
			<point x="542" y="26" type="curve" smooth="yes"/>
			<point x="542" y="650" type="line"/>
			<point x="370" y="650" type="line"/>
			<point x="370" y="408" type="line"/>
			<point x="230" y="408" type="line"/>
			<point x="230" y="650" type="line"/>
			<point x="58" y="650" type="line"/>
			<point x="58" y="0" type="line"/>
			<point x="230" y="0" type="line"/>
			<point x="230" y="258" type="line"/>
			<point x="370" y="258" type="line"/>
			<point x="370" y="0" type="line" smooth="yes"/>
			<point x="370" y="-28"/>
			<point x="362" y="-54"/>
			<point x="340" y="-54" type="curve" smooth="yes"/>
			<point x="329" y="-54"/>
			<point x="321" y="-52"/>
			<point x="308" y="-48" type="curve"/>
			<point x="278" y="-174" type="line"/>
			<point x="300" y="-182"/>
			<point x="326" y="-188"/>
		</contour>
	</outline>
</glyph>
<glyph name="Ghedescender" format="2">
	<advance width="600"/>
	<outline>
		<contour>
			<point x="202" y="-188" type="line"/>
			<point x="332" y="-188" type="line"/>
			<point x="346" y="36" type="line"/>
			<point x="346" y="144" type="line"/>
			<point x="178" y="144" type="line"/>
			<point x="178" y="0" type="line"/>
			<point x="202" y="0" type="line"/>
		</contour>
		<component base="Ghe"/>
	</outline>
</glyph>
<glyph name="Ka.a" format="2">
	<advance width="628"/>
	<outline>
		<contour>
			<point x="72" y="0" type="line"/>
			<point x="244" y="0" type="line"/>
			<point x="244" y="264" type="line"/>
			<point x="306" y="264" type="line"/>
			<point x="450" y="0" type="line"/>
			<point x="638" y="0" type="line"/>
			<point x="438" y="344" type="line"/>
			<point x="600" y="650" type="line"/>
			<point x="412" y="650" type="line"/>
			<point x="304" y="402" type="line"/>
			<point x="244" y="402" type="line"/>
			<point x="244" y="650" type="line"/>
			<point x="72" y="650" type="line"/>
		</contour>
	</outline>
	<anchor name="aboveUC" x="340" y="682"/>
</glyph>
<glyph name="Kadescender.a" format="2">
	<advance width="682"/>
	<outline>
		<contour>
			<point x="506" y="-188" type="line"/>
			<point x="660" y="-188" type="line"/>
			<point x="674" y="36" type="line"/>
			<point x="674" y="144" type="line"/>
			<point x="476" y="144" type="line"/>
			<point x="476" y="0" type="line"/>
			<point x="506" y="0" type="line"/>
		</contour>
		<component base="Ka.a"/>
	</outline>
</glyph>
<glyph name="Kahook.a" format="2">
	<advance width="638"/>
	<outline>
		<contour>
			<point x="362" y="-188" type="curve" smooth="yes"/>
			<point x="506" y="-188"/>
			<point x="606" y="-82"/>
			<point x="606" y="112" type="curve" smooth="yes"/>
			<point x="606" y="322"/>
			<point x="464" y="400"/>
			<point x="322" y="400" type="curve"/>
			<point x="438" y="344" type="line"/>
			<point x="600" y="650" type="line"/>
			<point x="412" y="650" type="line"/>
			<point x="304" y="402" type="line"/>
			<point x="244" y="402" type="line"/>
			<point x="244" y="650" type="line"/>
			<point x="72" y="650" type="line"/>
			<point x="72" y="0" type="line"/>
			<point x="244" y="0" type="line"/>
			<point x="244" y="264" type="line"/>
			<point x="296" y="264" type="line" smooth="yes"/>
			<point x="389" y="264"/>
			<point x="438" y="212"/>
			<point x="438" y="110" type="curve" smooth="yes"/>
			<point x="438" y="-4"/>
			<point x="380" y="-54"/>
			<point x="334" y="-54" type="curve" smooth="yes"/>
			<point x="322" y="-54"/>
			<point x="312" y="-52"/>
			<point x="298" y="-48" type="curve"/>
			<point x="268" y="-174" type="line"/>
			<point x="290" y="-182"/>
			<point x="316" y="-188"/>
		</contour>
	</outline>
</glyph>
<glyph name="Zhe.a" format="2">
	<advance width="892"/>
	<outline>
		<contour>
			<point x="0" y="0" type="line"/>
			<point x="188" y="0" type="line"/>
			<point x="308" y="264" type="line"/>
			<point x="364" y="264" type="line"/>
			<point x="364" y="0" type="line"/>
			<point x="528" y="0" type="line"/>
			<point x="528" y="264" type="line"/>
			<point x="584" y="264" type="line"/>
			<point x="704" y="0" type="line"/>
			<point x="892" y="0" type="line"/>
			<point x="710" y="344" type="line"/>
			<point x="856" y="650" type="line"/>
			<point x="672" y="650" type="line"/>
			<point x="576" y="402" type="line"/>
			<point x="528" y="402" type="line"/>
			<point x="528" y="650" type="line"/>
			<point x="364" y="650" type="line"/>
			<point x="364" y="402" type="line"/>
			<point x="316" y="402" type="line"/>
			<point x="220" y="650" type="line"/>
			<point x="36" y="650" type="line"/>
			<point x="182" y="344" type="line"/>
		</contour>
	</outline>
	<anchor name="aboveUC" x="446" y="672"/>
</glyph>
<glyph name="Zhedescender.a" format="2">
	<advance width="928"/>
	<outline>
		<contour>
			<point x="752" y="-188" type="line"/>
			<point x="906" y="-188" type="line"/>
			<point x="920" y="36" type="line"/>
			<point x="920" y="144" type="line"/>
			<point x="722" y="144" type="line"/>
			<point x="722" y="0" type="line"/>
			<point x="752" y="0" type="line"/>
		</contour>
		<component base="Zhe.a"/>
	</outline>
</glyph>
<glyph name="acutecmb.cap" format="1">
	<advance width="600"/>
	<outline>
		<contour>
			<point x="260" y="674" type="line"/>
			<point x="456" y="794" type="line"/>
			<point x="366" y="904" type="line"/>
			<point x="184" y="760" type="line"/>
		</contour>
		<contour>
			<point name="_aboveUC" x="300" y="670" type="move"/>
		</contour>
	</outline>
</glyph>
<glyph name="ain" format="2">
	<advance width="600"/>
	<outline>
		<contour>
			<point x="118" y="-12" type="curve" smooth="yes"/>
			<point x="168" y="-12"/>
			<point x="228" y="4"/>
			<point x="300" y="64" type="curve"/>
			<point x="372" y="4"/>
			<point x="432" y="-12"/>
			<point x="482" y="-12" type="curve" smooth="yes"/>
			<point x="519" y="-12"/>
			<point x="562" y="0"/>
			<point x="584" y="16" type="curve"/>
			<point x="536" y="138" type="line"/>
			<point x="523" y="130"/>
			<point x="504" y="126"/>
			<point x="486" y="126" type="curve" smooth="yes"/>
			<point x="456" y="126"/>
			<point x="432" y="137"/>
			<point x="406" y="158" type="curve"/>
			<point x="476" y="218"/>
			<point x="506" y="290"/>
			<point x="506" y="336" type="curve" smooth="yes"/>
			<point x="506" y="442"/>
			<point x="422" y="512"/>
			<point x="300" y="512" type="curve" smooth="yes"/>
			<point x="178" y="512"/>
			<point x="94" y="442"/>
			<point x="94" y="336" type="curve" smooth="yes"/>
			<point x="94" y="290"/>
			<point x="124" y="218"/>
			<point x="194" y="158" type="curve"/>
			<point x="168" y="137"/>
			<point x="142" y="126"/>
			<point x="114" y="126" type="curve" smooth="yes"/>
			<point x="94" y="126"/>
			<point x="77" y="130"/>
			<point x="64" y="138" type="curve"/>
			<point x="16" y="16" type="line"/>
			<point x="38" y="0"/>
			<point x="81" y="-12"/>
		</contour>
	</outline>
	<anchor name="aboveLC" x="304" y="522"/>
	<anchor name="belowLC" x="304" y="-22"/>
</glyph>
<glyph name="b.sups" format="1">
	<advance width="600"/>
	<outline>
		<contour>
			<point x="338" y="360" type="curve" smooth="yes"/>
			<point x="411" y="360"/>
			<point x="480" y="425"/>
			<point x="480" y="539" type="curve" smooth="yes"/>
			<point x="480" y="640"/>
			<point x="428" y="708"/>
			<point x="347" y="708" type="curve" smooth="yes"/>
			<point x="318" y="708"/>
			<point x="287" y="695"/>
			<point x="264" y="674" type="curve"/>
			<point x="266" y="722" type="line"/>
			<point x="266" y="834" type="line"/>
			<point x="147" y="834" type="line"/>
			<point x="147" y="368" type="line"/>
			<point x="240" y="368" type="line"/>
			<point x="250" y="404" type="line"/>
			<point x="252" y="404" type="line"/>
			<point x="278" y="375"/>
			<point x="308" y="360"/>
		</contour>
		<contour>
			<point x="309" y="456" type="curve" smooth="yes"/>
			<point x="294" y="456"/>
			<point x="279" y="459"/>
			<point x="266" y="470" type="curve"/>
			<point x="266" y="589" type="line"/>
			<point x="281" y="605"/>
			<point x="294" y="611"/>
			<point x="312" y="611" type="curve" smooth="yes"/>
			<point x="342" y="611"/>
			<point x="358" y="590"/>
			<point x="358" y="537" type="curve" smooth="yes"/>
			<point x="358" y="475"/>
			<point x="335" y="456"/>
		</contour>
	</outline>
</glyph>
<glyph name="be.srb" format="1">
	<advance width="600"/>
	<outline>
		<contour>
			<point x="292" y="-12" type="curve" smooth="yes"/>
			<point x="444" y="-12"/>
			<point x="542" y="84"/>
			<point x="542" y="224" type="curve" smooth="yes"/>
			<point x="542" y="328"/>
			<point x="492" y="394"/>
			<point x="402" y="452" type="curve" smooth="yes"/>
			<point x="326" y="501"/>
			<point x="278" y="512"/>
			<point x="278" y="530" type="curve" smooth="yes"/>
			<point x="278" y="540"/>
			<point x="284" y="544"/>
			<point x="416" y="550" type="curve" smooth="yes"/>
			<point x="462" y="552"/>
			<point x="516" y="564"/>
			<point x="546" y="582" type="curve"/>
			<point x="514" y="730" type="line"/>
			<point x="482" y="716"/>
			<point x="452" y="710"/>
			<point x="322" y="704" type="curve" smooth="yes"/>
			<point x="194" y="698"/>
			<point x="112" y="666"/>
			<point x="112" y="560" type="curve" smooth="yes"/>
			<point x="112" y="484"/>
			<point x="188" y="426"/>
			<point x="255" y="380" type="curve" smooth="yes"/>
			<point x="322" y="334"/>
			<point x="382" y="299"/>
			<point x="382" y="230" type="curve" smooth="yes"/>
			<point x="382" y="153"/>
			<point x="338" y="126"/>
			<point x="298" y="126" type="curve" smooth="yes"/>
			<point x="254" y="126"/>
			<point x="216" y="157"/>
			<point x="216" y="220" type="curve" smooth="yes"/>
			<point x="216" y="288"/>
			<point x="261" y="329"/>
			<point x="319" y="342" type="curve"/>
			<point x="242" y="418" type="line"/>
			<point x="142" y="396"/>
			<point x="60" y="332"/>
			<point x="60" y="212" type="curve" smooth="yes"/>
			<point x="60" y="74"/>
			<point x="160" y="-12"/>
		</contour>
	</outline>
</glyph>
<glyph name="betalatin" format="2">
	<advance width="614"/>
	<outline>
		<contour>
			<point x="58" y="-176" type="line"/>
			<point x="230" y="-176" type="line"/>
			<point x="230" y="-38" type="line"/>
			<point x="224" y="38" type="line"/>
			<point x="268" y="0"/>
			<point x="330" y="-12"/>
			<point x="380" y="-12" type="curve" smooth="yes"/>
			<point x="504" y="-12"/>
			<point x="582" y="70"/>
			<point x="582" y="202" type="curve" smooth="yes"/>
			<point x="582" y="292"/>
			<point x="530" y="354"/>
			<point x="450" y="368" type="curve"/>
			<point x="450" y="372" type="line"/>
			<point x="512" y="394"/>
			<point x="542" y="446"/>
			<point x="542" y="524" type="curve" smooth="yes"/>
			<point x="542" y="651"/>
			<point x="423" y="708"/>
			<point x="302" y="708" type="curve" smooth="yes"/>
			<point x="134" y="708"/>
			<point x="58" y="598"/>
			<point x="58" y="456" type="curve" smooth="yes"/>
		</contour>
		<contour>
			<point x="328" y="128" type="curve" smooth="yes"/>
			<point x="298" y="128"/>
			<point x="260" y="134"/>
			<point x="230" y="173" type="curve"/>
			<point x="230" y="448" type="line" smooth="yes"/>
			<point x="230" y="532"/>
			<point x="254" y="574"/>
			<point x="308" y="574" type="curve" smooth="yes"/>
			<point x="350" y="574"/>
			<point x="374" y="548"/>
			<point x="374" y="500" type="curve" smooth="yes"/>
			<point x="374" y="442"/>
			<point x="348" y="420"/>
			<point x="304" y="420" type="curve" smooth="yes"/>
			<point x="292" y="420" type="line"/>
			<point x="292" y="292" type="line"/>
			<point x="320" y="292" type="line" smooth="yes"/>
			<point x="386" y="292"/>
			<point x="414" y="263"/>
			<point x="414" y="208" type="curve" smooth="yes"/>
			<point x="414" y="156"/>
			<point x="382" y="128"/>
		</contour>
	</outline>
	<anchor name="aboveUC" x="310" y="720"/>
	<anchor name="belowLC" x="410" y="-22"/>
</glyph>
<glyph name="brevegravecmb" format="1">
	<advance width="600"/>
	<outline>
		<contour>
			<point x="300" y="572" type="curve" smooth="yes"/>
			<point x="418" y="572"/>
			<point x="472" y="638"/>
			<point x="474" y="732" type="curve"/>
			<point x="388" y="748" type="line"/>
			<point x="381" y="702"/>
			<point x="354" y="668"/>
			<point x="300" y="668" type="curve" smooth="yes"/>
			<point x="246" y="668"/>
			<point x="219" y="702"/>
			<point x="212" y="748" type="curve"/>
			<point x="126" y="732" type="line"/>
			<point x="128" y="638"/>
			<point x="183" y="572"/>
		</contour>
		<contour>
			<point x="286" y="706" type="line"/>
			<point x="360" y="756" type="line"/>
			<point x="264" y="904" type="line"/>
			<point x="164" y="830" type="line"/>
		</contour>
		<contour>
			<point name="_aboveLC" x="300" y="520" type="move"/>
		</contour>
	</outline>
</glyph>
<glyph name="brevehoicmb" format="1">
	<advance width="600"/>
	<outline>
		<contour>
			<point x="300" y="572" type="curve" smooth="yes"/>
			<point x="418" y="572"/>
			<point x="472" y="638"/>
			<point x="474" y="732" type="curve"/>
			<point x="388" y="748" type="line"/>
			<point x="381" y="702"/>
			<point x="354" y="668"/>
			<point x="300" y="668" type="curve" smooth="yes"/>
			<point x="246" y="668"/>
			<point x="219" y="702"/>
			<point x="212" y="748" type="curve"/>
			<point x="126" y="732" type="line"/>
			<point x="128" y="638"/>
			<point x="183" y="572"/>
		</contour>
		<contour>
			<point x="262" y="703" type="line"/>
			<point x="332" y="711"/>
			<point x="388" y="731"/>
			<point x="388" y="801" type="curve" smooth="yes"/>
			<point x="388" y="859"/>
			<point x="352" y="900"/>
			<point x="230" y="904" type="curve"/>
			<point x="214" y="813" type="line"/>
			<point x="265" y="809"/>
			<point x="278" y="799"/>
			<point x="278" y="783" type="curve" smooth="yes"/>
			<point x="278" y="767"/>
			<point x="268" y="762"/>
			<point x="252" y="759" type="curve"/>
		</contour>
		<contour>
			<point name="_aboveLC" x="300" y="520" type="move"/>
		</contour>
	</outline>
</glyph>
<glyph name="caroncmb.cap" format="2">
	<advance width="600"/>
	<outline>
		<contour>
			<point x="206" y="700" type="line"/>
			<point x="394" y="700" type="line"/>
			<point x="478" y="810" type="line"/>
			<point x="404" y="854" type="line"/>
			<point x="302" y="774" type="line"/>
			<point x="298" y="774" type="line"/>
			<point x="196" y="854" type="line"/>
			<point x="122" y="810" type="line"/>
		</contour>
	</outline>
	<anchor name="_aboveUC" x="300" y="670"/>
</glyph>
<glyph name="chilatin" format="2">
	<advance width="504"/>
	<outline>
		<contour>
			<point x="-6" y="-176" type="line"/>
			<point x="172" y="-176" type="line"/>
			<point x="220" y="-40" type="line"/>
			<point x="232" y="-2"/>
			<point x="240" y="24"/>
			<point x="249" y="58" type="curve"/>
			<point x="253" y="58" type="line"/>
			<point x="260" y="24"/>
			<point x="268" y="-2"/>
			<point x="280" y="-40" type="curve"/>
			<point x="326" y="-176" type="line"/>
			<point x="510" y="-176" type="line"/>
			<point x="350" y="180" type="line"/>
			<point x="498" y="500" type="line"/>
			<point x="320" y="500" type="line"/>
			<point x="286" y="400" type="line"/>
			<point x="274" y="362"/>
			<point x="264" y="336"/>
			<point x="254" y="304" type="curve"/>
			<point x="250" y="304" type="line"/>
			<point x="240" y="336"/>
			<point x="232" y="362"/>
			<point x="220" y="400" type="curve"/>
			<point x="186" y="500" type="line"/>
			<point x="2" y="500" type="line"/>
			<point x="152" y="180" type="line"/>
		</contour>
	</outline>
	<anchor name="aboveLC" x="250" y="522"/>
	<anchor name="belowLC" x="250" y="-178"/>
</glyph>
<glyph name="circumflexgravecmb" format="1">
	<advance width="600"/>
	<outline>
		<contour>
			<point x="196" y="564" type="line"/>
			<point x="298" y="626" type="line"/>
			<point x="302" y="626" type="line"/>
			<point x="404" y="564" type="line"/>
			<point x="458" y="624" type="line"/>
			<point x="368" y="716" type="line"/>
			<point x="232" y="716" type="line"/>
			<point x="142" y="624" type="line"/>
		</contour>
		<contour>
			<point x="108" y="638" type="line"/>
			<point x="172" y="688" type="line"/>
			<point x="96" y="818" type="line"/>
			<point x="6" y="760" type="line"/>
		</contour>
		<contour>
			<point name="_aboveLC" x="300" y="520" type="move"/>
		</contour>
	</outline>
</glyph>
<glyph name="comma.subs" format="1">
	<advance width="600"/>
	<outline>
		<contour>
			<point x="244" y="-326" type="line"/>
			<point x="332" y="-302"/>
			<point x="380" y="-244"/>
			<point x="380" y="-162" type="curve" smooth="yes"/>
			<point x="380" y="-94"/>
			<point x="352" y="-56"/>
			<point x="302" y="-56" type="curve" smooth="yes"/>
			<point x="262" y="-56"/>
			<point x="230" y="-84"/>
			<point x="230" y="-122" type="curve" smooth="yes"/>
			<point x="230" y="-164"/>
			<point x="263" y="-188"/>
			<point x="299" y="-188" type="curve" smooth="yes"/>
			<point x="314" y="-188"/>
			<point x="328" y="-180"/>
			<point x="338" y="-172" type="curve"/>
			<point x="304" y="-110" type="line"/>
			<point x="302" y="-186" type="line"/>
			<point x="303" y="-226"/>
			<point x="275" y="-247"/>
			<point x="220" y="-264" type="curve"/>
		</contour>
	</outline>
</glyph>
<glyph name="commabelowcmb.a" format="1">
	<advance width="600"/>
	<outline>
		<contour>
			<point x="348" y="566" type="curve"/>
			<point x="380" y="626" type="line"/>
			<point x="336" y="630"/>
			<point x="320" y="642"/>
			<point x="320" y="658" type="curve" smooth="yes"/>
			<point x="320" y="680"/>
			<point x="344" y="690"/>
			<point x="420" y="694" type="curve"/>
			<point x="408" y="760" type="line"/>
			<point x="276" y="756"/>
			<point x="198" y="724"/>
			<point x="198" y="652" type="curve" smooth="yes"/>
			<point x="198" y="602"/>
			<point x="234" y="574"/>
		</contour>
		<contour>
			<point name="_aboveLC" x="300" y="520" type="move"/>
		</contour>
	</outline>
</glyph>
<glyph name="command" format="2">
	<advance width="600"/>
	<outline>
		<contour>
			<point x="94" y="-178" type="curve" smooth="yes"/>
			<point x="195" y="-178"/>
			<point x="222" y="-81"/>
			<point x="222" y="46" type="curve" smooth="yes"/>
			<point x="222" y="474" type="line" smooth="yes"/>
			<point x="222" y="612"/>
			<point x="195" y="698"/>
			<point x="94" y="698" type="curve" smooth="yes"/>
			<point x="22" y="698"/>
			<point x="-22" y="639"/>
			<point x="-22" y="562" type="curve" smooth="yes"/>
			<point x="-22" y="444"/>
			<point x="45" y="384"/>
			<point x="152" y="384" type="curve" smooth="yes"/>
			<point x="448" y="384" type="line" smooth="yes"/>
			<point x="555" y="384"/>
			<point x="622" y="444"/>
			<point x="622" y="562" type="curve" smooth="yes"/>
			<point x="622" y="639"/>
			<point x="578" y="698"/>
			<point x="506" y="698" type="curve" smooth="yes"/>
			<point x="405" y="698"/>
			<point x="378" y="612"/>
			<point x="378" y="474" type="curve" smooth="yes"/>
			<point x="378" y="46" type="line" smooth="yes"/>
			<point x="378" y="-81"/>
			<point x="405" y="-178"/>
			<point x="506" y="-178" type="curve" smooth="yes"/>
			<point x="578" y="-178"/>
			<point x="622" y="-119"/>
			<point x="622" y="-42" type="curve" smooth="yes"/>
			<point x="622" y="76"/>
			<point x="555" y="136"/>
			<point x="448" y="136" type="curve" smooth="yes"/>
			<point x="152" y="136" type="line" smooth="yes"/>
			<point x="45" y="136"/>
			<point x="-22" y="76"/>
			<point x="-22" y="-42" type="curve" smooth="yes"/>
			<point x="-22" y="-119"/>
			<point x="22" y="-178"/>
		</contour>
		<contour>
			<point x="96" y="-152" type="curve" smooth="yes"/>
			<point x="38" y="-152"/>
			<point x="10" y="-94"/>
			<point x="10" y="-36" type="curve" smooth="yes"/>
			<point x="10" y="51"/>
			<point x="68" y="110"/>
			<point x="152" y="110" type="curve" smooth="yes"/>
			<point x="448" y="110" type="line" smooth="yes"/>
			<point x="532" y="110"/>
			<point x="590" y="51"/>
			<point x="590" y="-36" type="curve" smooth="yes"/>
			<point x="590" y="-94"/>
			<point x="562" y="-152"/>
			<point x="504" y="-152" type="curve" smooth="yes"/>
			<point x="442" y="-152"/>
			<point x="408" y="-92"/>
			<point x="408" y="40" type="curve" smooth="yes"/>
			<point x="408" y="480" type="line" smooth="yes"/>
			<point x="408" y="603"/>
			<point x="442" y="672"/>
			<point x="504" y="672" type="curve" smooth="yes"/>
			<point x="562" y="672"/>
			<point x="590" y="614"/>
			<point x="590" y="556" type="curve" smooth="yes"/>
			<point x="590" y="469"/>
			<point x="532" y="410"/>
			<point x="448" y="410" type="curve" smooth="yes"/>
			<point x="152" y="410" type="line" smooth="yes"/>
			<point x="68" y="410"/>
			<point x="10" y="469"/>
			<point x="10" y="556" type="curve" smooth="yes"/>
			<point x="10" y="614"/>
			<point x="38" y="672"/>
			<point x="96" y="672" type="curve" smooth="yes"/>
			<point x="157" y="672"/>
			<point x="192" y="603"/>
			<point x="192" y="480" type="curve" smooth="yes"/>
			<point x="192" y="40" type="line" smooth="yes"/>
			<point x="192" y="-92"/>
			<point x="157" y="-152"/>
		</contour>
	</outline>
</glyph>
<glyph name="delete" format="2">
	<advance width="600"/>
	<outline>
		<contour>
			<point x="161" y="0" type="line"/>
			<point x="593" y="0" type="line"/>
			<point x="593" y="650" type="line"/>
			<point x="161" y="650" type="line"/>
			<point x="-41" y="332" type="line"/>
			<point x="-41" y="328" type="line"/>
		</contour>
		<contour>
			<point x="175" y="26" type="line"/>
			<point x="-14" y="330" type="line"/>
			<point x="175" y="624" type="line"/>
			<point x="571" y="624" type="line"/>
			<point x="571" y="26" type="line"/>
		</contour>
		<contour>
			<point x="241" y="138" type="line"/>
			<point x="360" y="310" type="line"/>
			<point x="478" y="138" type="line"/>
			<point x="492" y="160" type="line"/>
			<point x="374" y="330" type="line"/>
			<point x="492" y="500" type="line"/>
			<point x="478" y="522" type="line"/>
			<point x="360" y="350" type="line"/>
			<point x="241" y="522" type="line"/>
			<point x="227" y="500" type="line"/>
			<point x="346" y="330" type="line"/>
			<point x="227" y="160" type="line"/>
		</contour>
	</outline>
</glyph>
<glyph name="enhook" format="2">
	<advance width="600"/>
	<outline>
		<contour>
			<point x="352" y="-188" type="curve" smooth="yes"/>
			<point x="490" y="-188"/>
			<point x="536" y="-86"/>
			<point x="536" y="26" type="curve" smooth="yes"/>
			<point x="536" y="500" type="line"/>
			<point x="364" y="500" type="line"/>
			<point x="364" y="328" type="line"/>
			<point x="236" y="328" type="line"/>
			<point x="236" y="500" type="line"/>
			<point x="64" y="500" type="line"/>
			<point x="64" y="0" type="line"/>
			<point x="236" y="0" type="line"/>
			<point x="236" y="178" type="line"/>
			<point x="364" y="178" type="line"/>
			<point x="364" y="20" type="line" smooth="yes"/>
			<point x="364" y="-34"/>
			<point x="350" y="-54"/>
			<point x="324" y="-54" type="curve" smooth="yes"/>
			<point x="313" y="-54"/>
			<point x="305" y="-52"/>
			<point x="292" y="-48" type="curve"/>
			<point x="262" y="-174" type="line"/>
			<point x="283" y="-182"/>
			<point x="308" y="-188"/>
		</contour>
	</outline>
</glyph>
<glyph name="ghe.c" format="2">
	<advance width="600"/>
	<outline>
		<contour>
			<point x="192" y="-12" type="curve" smooth="yes"/>
			<point x="264" y="-12"/>
			<point x="324" y="18"/>
			<point x="366" y="56" type="curve"/>
			<point x="350" y="78" type="line"/>
			<point x="310" y="42"/>
			<point x="258" y="18"/>
			<point x="190" y="18" type="curve" smooth="yes"/>
			<point x="110" y="18"/>
			<point x="68" y="64"/>
			<point x="68" y="118" type="curve" smooth="yes"/>
			<point x="68" y="182"/>
			<point x="132" y="212"/>
			<point x="188" y="230" type="curve" smooth="yes"/>
			<point x="280" y="260"/>
			<point x="340" y="294"/>
			<point x="340" y="366" type="curve" smooth="yes"/>
			<point x="340" y="432"/>
			<point x="288" y="490"/>
			<point x="194" y="490" type="curve" smooth="yes"/>
			<point x="142" y="490"/>
			<point x="92" y="468"/>
			<point x="58" y="442" type="curve"/>
			<point x="74" y="420" type="line"/>
			<point x="106" y="442"/>
			<point x="150" y="460"/>
			<point x="192" y="460" type="curve" smooth="yes"/>
			<point x="272" y="460"/>
			<point x="308" y="414"/>
			<point x="308" y="368" type="curve" smooth="yes"/>
			<point x="308" y="310"/>
			<point x="254" y="288"/>
			<point x="196" y="266" type="curve" smooth="yes"/>
			<point x="118" y="236"/>
			<point x="36" y="212"/>
			<point x="36" y="120" type="curve" smooth="yes"/>
			<point x="36" y="50"/>
			<point x="92" y="-12"/>
		</contour>
	</outline>
	<anchor name="aboveLC" x="210" y="502"/>
</glyph>
<glyph name="ghedescender" format="2">
	<advance width="600"/>
	<outline>
		<contour>
			<point x="194" y="-172" type="line"/>
			<point x="342" y="-172" type="line"/>
			<point x="358" y="20" type="line"/>
			<point x="358" y="134" type="line"/>
			<point x="166" y="134" type="line"/>
			<point x="166" y="0" type="line"/>
			<point x="194" y="0" type="line"/>
		</contour>
		<component base="ghe"/>
	</outline>
</glyph>
<glyph name="glottalstoplatin" format="2">
	<advance width="488"/>
	<outline>
		<contour>
			<point x="138" y="0" type="line"/>
			<point x="310" y="0" type="line"/>
			<point x="310" y="130" type="line"/>
			<point x="390" y="168"/>
			<point x="450" y="232"/>
			<point x="450" y="324" type="curve" smooth="yes"/>
			<point x="450" y="446"/>
			<point x="342" y="512"/>
			<point x="218" y="512" type="curve" smooth="yes"/>
			<point x="126" y="512"/>
			<point x="62" y="474"/>
			<point x="8" y="422" type="curve"/>
			<point x="86" y="322" type="line"/>
			<point x="122" y="352"/>
			<point x="160" y="374"/>
			<point x="208" y="374" type="curve" smooth="yes"/>
			<point x="246" y="374"/>
			<point x="278" y="350"/>
			<point x="278" y="314" type="curve" smooth="yes"/>
			<point x="278" y="266"/>
			<point x="243" y="228"/>
			<point x="138" y="188" type="curve"/>
		</contour>
	</outline>
	<anchor name="aboveLC" x="240" y="522"/>
	<anchor name="belowLC" x="220" y="-22"/>
</glyph>
<glyph name="gravecmb.cap" format="2">
	<advance width="600"/>
	<outline>
		<contour>
			<point x="340" y="674" type="line"/>
			<point x="416" y="760" type="line"/>
			<point x="234" y="904" type="line"/>
			<point x="144" y="794" type="line"/>
		</contour>
	</outline>
	<anchor name="_aboveUC" x="300" y="670"/>
</glyph>
<glyph name="iogonek.x" format="2">
	<advance width="600"/>
	<outline>
		<contour>
			<point x="364" y="-220" type="curve" smooth="yes"/>
			<point x="402" y="-220"/>
			<point x="450" y="-206"/>
			<point x="480" y="-184" type="curve"/>
			<point x="446" y="-96" type="line"/>
			<point x="434" y="-102"/>
			<point x="418" y="-108"/>
			<point x="400" y="-108" type="curve" smooth="yes"/>
			<point x="382" y="-108"/>
			<point x="362" y="-98"/>
			<point x="362" y="-76" type="curve" smooth="yes"/>
			<point x="362" y="-48"/>
			<point x="378" y="-16"/>
			<point x="436" y="0" type="curve"/>
			<point x="436" y="500" type="line"/>
			<point x="74" y="500" type="line"/>
			<point x="74" y="366" type="line"/>
			<point x="264" y="366" type="line"/>
			<point x="264" y="0" type="line"/>
			<point x="304" y="0" type="line"/>
			<point x="280" y="-16"/>
			<point x="238" y="-58"/>
			<point x="238" y="-116" type="curve" smooth="yes"/>
			<point x="238" y="-186"/>
			<point x="294" y="-220"/>
		</contour>
	</outline>
	<anchor name="aboveLC" x="344" y="520"/>
</glyph>
<glyph name="istroke.d" format="1">
	<advance width="600"/>
	<outline>
		<contour>
			<point x="108" y="180" type="line"/>
			<point x="556" y="180" type="line"/>
			<point x="556" y="260" type="line"/>
			<point x="264" y="260" type="line"/>
			<point x="108" y="254" type="line"/>
		</contour>
		<component base="dotlessi"/>
		<contour>
			<point name="aboveLC" x="344" y="520" type="move"/>
		</contour>
		<contour>
			<point name="belowLC" x="344" y="-20" type="move"/>
		</contour>
	</outline>
</glyph>
<glyph name="istroke.x" format="2">
	<advance width="600"/>
	<outline>
		<contour>
			<point x="108" y="180" type="line"/>
			<point x="556" y="180" type="line"/>
			<point x="556" y="260" type="line"/>
			<point x="264" y="260" type="line"/>
			<point x="108" y="254" type="line"/>
		</contour>
		<component base="dotlessi"/>
	</outline>
	<anchor name="aboveLC" x="344" y="520"/>
	<anchor name="belowLC" x="344" y="-20"/>
</glyph>
<glyph name="kahook" format="2">
	<advance width="578"/>
	<outline>
		<contour>
			<point x="326" y="-188" type="curve" smooth="yes"/>
			<point x="456" y="-188"/>
			<point x="548" y="-108"/>
			<point x="548" y="74" type="curve" smooth="yes"/>
			<point x="548" y="244"/>
			<point x="450" y="324"/>
			<point x="284" y="324" type="curve"/>
			<point x="410" y="262" type="line"/>
			<point x="430" y="306" type="line" smooth="yes"/>
			<point x="447" y="344"/>
			<point x="466" y="350"/>
			<point x="490" y="350" type="curve" smooth="yes"/>
			<point x="497" y="350"/>
			<point x="504" y="348"/>
			<point x="510" y="346" type="curve"/>
			<point x="536" y="504" type="line"/>
			<point x="522" y="510"/>
			<point x="508" y="512"/>
			<point x="492" y="512" type="curve" smooth="yes"/>
			<point x="413" y="512"/>
			<point x="364" y="492"/>
			<point x="322" y="408" type="curve" smooth="yes"/>
			<point x="280" y="324" type="line"/>
			<point x="228" y="324" type="line"/>
			<point x="228" y="500" type="line"/>
			<point x="58" y="500" type="line"/>
			<point x="58" y="0" type="line"/>
			<point x="228" y="0" type="line"/>
			<point x="228" y="190" type="line"/>
			<point x="264" y="190" type="line" smooth="yes"/>
			<point x="332" y="190"/>
			<point x="378" y="148"/>
			<point x="378" y="72" type="curve" smooth="yes"/>
			<point x="378" y="-10"/>
			<point x="342" y="-54"/>
			<point x="292" y="-54" type="curve" smooth="yes"/>
			<point x="282" y="-54"/>
			<point x="274" y="-52"/>
			<point x="260" y="-48" type="curve"/>
			<point x="230" y="-174" type="line"/>
			<point x="260" y="-186"/>
			<point x="291" y="-188"/>
		</contour>
	</outline>
</glyph>
<glyph name="lbelt.a" format="2">
	<advance width="600"/>
	<outline>
		<contour>
			<point x="237" y="262" type="curve" smooth="yes"/>
			<point x="542" y="262" type="line"/>
			<point x="542" y="342" type="line"/>
			<point x="221" y="342" type="line" smooth="yes"/>
			<point x="184" y="342"/>
			<point x="170" y="356"/>
			<point x="170" y="373" type="curve" smooth="yes"/>
			<point x="170" y="389"/>
			<point x="179" y="400"/>
			<point x="198" y="400" type="curve" smooth="yes"/>
			<point x="234" y="400"/>
			<point x="244" y="368"/>
			<point x="244" y="350" type="curve"/>
			<point x="303" y="322" type="line"/>
			<point x="303" y="361"/>
			<point x="291" y="478"/>
			<point x="192" y="478" type="curve" smooth="yes"/>
			<point x="128" y="478"/>
			<point x="82" y="433"/>
			<point x="82" y="372" type="curve" smooth="yes"/>
			<point x="82" y="311"/>
			<point x="128" y="262"/>
		</contour>
		<component base="l.a"/>
	</outline>
	<anchor name="aboveUC" x="324" y="730"/>
	<anchor name="baseLC" x="333" y="0"/>
	<anchor name="belowLC" x="324" y="-20"/>
</glyph>
<glyph name="lcat" format="1">
	<advance width="600"/>
	<outline>
		<contour>
			<point x="233" y="-12" type="curve" smooth="yes"/>
			<point x="273" y="-12"/>
			<point x="294" y="-2"/>
			<point x="328" y="8" type="curve"/>
			<point x="291" y="134" type="line"/>
			<point x="276" y="129"/>
			<point x="268" y="126"/>
			<point x="259" y="126" type="curve" smooth="yes"/>
			<point x="233" y="126"/>
			<point x="204" y="142"/>
			<point x="204" y="200" type="curve" smooth="yes"/>
			<point x="204" y="696" type="line"/>
			<point x="-34" y="696" type="line"/>
			<point x="-34" y="562" type="line"/>
			<point x="52" y="562" type="line"/>
			<point x="52" y="206" type="line" smooth="yes"/>
			<point x="52" y="76"/>
			<point x="113" y="-12"/>
		</contour>
		<contour>
			<point x="284" y="306" type="curve" smooth="yes"/>
			<point x="326" y="306"/>
			<point x="354" y="337"/>
			<point x="354" y="376" type="curve" smooth="yes"/>
			<point x="354" y="414"/>
			<point x="326" y="446"/>
			<point x="284" y="446" type="curve" smooth="yes"/>
			<point x="242" y="446"/>
			<point x="214" y="414"/>
			<point x="214" y="376" type="curve" smooth="yes"/>
			<point x="214" y="337"/>
			<point x="242" y="306"/>
		</contour>
		<contour>
			<point x="545" y="-12" type="curve" smooth="yes"/>
			<point x="585" y="-12"/>
			<point x="606" y="-2"/>
			<point x="640" y="8" type="curve"/>
			<point x="603" y="134" type="line"/>
			<point x="588" y="129"/>
			<point x="580" y="126"/>
			<point x="571" y="126" type="curve" smooth="yes"/>
			<point x="545" y="126"/>
			<point x="516" y="142"/>
			<point x="516" y="200" type="curve" smooth="yes"/>
			<point x="516" y="696" type="line"/>
			<point x="278" y="696" type="line"/>
			<point x="278" y="562" type="line"/>
			<point x="364" y="562" type="line"/>
			<point x="364" y="206" type="line" smooth="yes"/>
			<point x="364" y="76"/>
			<point x="425" y="-12"/>
		</contour>
	</outline>
</glyph>
<glyph name="lenistildecmb" format="1">
	<advance width="600"/>
	<outline>
		<contour>
			<point x="356" y="730" type="curve" smooth="yes"/>
			<point x="413" y="730"/>
			<point x="453" y="764"/>
			<point x="462" y="850" type="curve"/>
			<point x="376" y="858" type="line"/>
			<point x="370" y="832"/>
			<point x="360" y="822"/>
			<point x="346" y="822" type="curve" smooth="yes"/>
			<point x="320" y="822"/>
			<point x="298" y="864"/>
			<point x="244" y="864" type="curve" smooth="yes"/>
			<point x="187" y="864"/>
			<point x="147" y="830"/>
			<point x="138" y="744" type="curve"/>
			<point x="224" y="736" type="line"/>
			<point x="230" y="762"/>
			<point x="240" y="772"/>
			<point x="254" y="772" type="curve" smooth="yes"/>
			<point x="280" y="772"/>
			<point x="302" y="730"/>
		</contour>
		<contour>
			<point x="262" y="563" type="line"/>
			<point x="332" y="570"/>
			<point x="388" y="594"/>
			<point x="388" y="647" type="curve" smooth="yes"/>
			<point x="388" y="687"/>
			<point x="352" y="711"/>
			<point x="230" y="715" type="curve"/>
			<point x="214" y="649" type="line"/>
			<point x="265" y="645"/>
			<point x="278" y="639"/>
			<point x="278" y="629" type="curve" smooth="yes"/>
			<point x="278" y="620"/>
			<point x="268" y="617"/>
			<point x="252" y="615" type="curve"/>
		</contour>
		<contour>
			<point name="_aboveLC" x="300" y="520" type="move"/>
		</contour>
	</outline>
</glyph>
<glyph name="marcaregistrada" format="2">
	<advance width="600"/>
	<outline>
		<contour>
			<point x="32" y="370" type="line"/>
			<point x="62" y="370" type="line"/>
			<point x="62" y="540" type="line"/>
			<point x="58" y="636" type="line"/>
			<point x="62" y="636" type="line"/>
			<point x="148" y="418" type="line"/>
			<point x="178" y="418" type="line"/>
			<point x="264" y="636" type="line"/>
			<point x="268" y="636" type="line"/>
			<point x="264" y="540" type="line"/>
			<point x="264" y="370" type="line"/>
			<point x="294" y="370" type="line"/>
			<point x="294" y="676" type="line"/>
			<point x="250" y="676" type="line"/>
			<point x="198" y="546" type="line"/>
			<point x="166" y="458" type="line"/>
			<point x="162" y="458" type="line"/>
			<point x="130" y="546" type="line"/>
			<point x="76" y="676" type="line"/>
			<point x="32" y="676" type="line"/>
		</contour>
		<contour>
			<point x="379" y="370" type="line"/>
			<point x="409" y="370" type="line"/>
			<point x="409" y="505" type="line"/>
			<point x="476" y="505" type="line" smooth="yes"/>
			<point x="538" y="505"/>
			<point x="578" y="536"/>
			<point x="578" y="596" type="curve" smooth="yes"/>
			<point x="578" y="653"/>
			<point x="538" y="676"/>
			<point x="476" y="676" type="curve" smooth="yes"/>
			<point x="379" y="676" type="line"/>
		</contour>
		<contour>
			<point x="409" y="533" type="line"/>
			<point x="409" y="648" type="line"/>
			<point x="471" y="648" type="line" smooth="yes"/>
			<point x="520" y="648"/>
			<point x="547" y="635"/>
			<point x="547" y="596" type="curve" smooth="yes"/>
			<point x="547" y="553"/>
			<point x="520" y="533"/>
			<point x="471" y="533" type="curve" smooth="yes"/>
		</contour>
		<contour>
			<point x="550" y="370" type="line"/>
			<point x="584" y="370" type="line"/>
			<point x="492" y="523" type="line"/>
			<point x="462" y="518" type="line"/>
		</contour>
	</outline>
</glyph>
<glyph name="omegalatinclosed" format="2">
	<advance width="764"/>
	<outline>
		<contour>
			<point x="230" y="-12" type="curve" smooth="yes"/>
			<point x="306" y="-12"/>
			<point x="364" y="34"/>
			<point x="378" y="114" type="curve"/>
			<point x="382" y="114" type="line"/>
			<point x="392" y="34"/>
			<point x="464" y="-12"/>
			<point x="540" y="-12" type="curve" smooth="yes"/>
			<point x="670" y="-12"/>
			<point x="728" y="100"/>
			<point x="728" y="228" type="curve" smooth="yes"/>
			<point x="728" y="378"/>
			<point x="624" y="512"/>
			<point x="382" y="512" type="curve" smooth="yes"/>
			<point x="148" y="512"/>
			<point x="36" y="378"/>
			<point x="36" y="230" type="curve" smooth="yes"/>
			<point x="36" y="74"/>
			<point x="102" y="-12"/>
		</contour>
		<contour>
			<point x="252" y="118" type="curve" smooth="yes"/>
			<point x="214" y="118"/>
			<point x="198" y="150"/>
			<point x="198" y="218" type="curve" smooth="yes"/>
			<point x="198" y="298"/>
			<point x="234" y="382"/>
			<point x="378" y="382" type="curve" smooth="yes"/>
			<point x="510" y="382"/>
			<point x="566" y="321"/>
			<point x="566" y="220" type="curve" smooth="yes"/>
			<point x="566" y="150"/>
			<point x="544" y="118"/>
			<point x="510" y="118" type="curve" smooth="yes"/>
			<point x="480" y="118"/>
			<point x="458" y="142"/>
			<point x="458" y="208" type="curve" smooth="yes"/>
			<point x="458" y="310" type="line"/>
			<point x="302" y="310" type="line"/>
			<point x="302" y="208" type="line" smooth="yes"/>
			<point x="302" y="148"/>
			<point x="286" y="118"/>
		</contour>
	</outline>
	<anchor name="aboveLC" x="380" y="522"/>
	<anchor name="belowLC" x="380" y="-22"/>
</glyph>
<glyph name="p.sups" format="1">
	<advance width="600"/>
	<outline>
		<contour>
			<point x="147" y="253" type="line"/>
			<point x="266" y="253" type="line"/>
			<point x="266" y="343" type="line"/>
			<point x="262" y="393" type="line"/>
			<point x="284" y="372"/>
			<point x="309" y="360"/>
			<point x="338" y="360" type="curve" smooth="yes"/>
			<point x="411" y="360"/>
			<point x="480" y="425"/>
			<point x="480" y="539" type="curve" smooth="yes"/>
			<point x="480" y="640"/>
			<point x="429" y="708"/>
			<point x="348" y="708" type="curve" smooth="yes"/>
			<point x="314" y="708"/>
			<point x="280" y="691"/>
			<point x="255" y="669" type="curve"/>
			<point x="252" y="669" type="line"/>
			<point x="244" y="700" type="line"/>
			<point x="147" y="700" type="line"/>
		</contour>
		<contour>
			<point x="309" y="456" type="curve" smooth="yes"/>
			<point x="294" y="456"/>
			<point x="279" y="459"/>
			<point x="266" y="470" type="curve"/>
			<point x="266" y="589" type="line"/>
			<point x="281" y="605"/>
			<point x="294" y="611"/>
			<point x="312" y="611" type="curve" smooth="yes"/>
			<point x="342" y="611"/>
			<point x="358" y="590"/>
			<point x="358" y="537" type="curve" smooth="yes"/>
			<point x="358" y="475"/>
			<point x="335" y="456"/>
		</contour>
	</outline>
</glyph>
<glyph name="period.subs" format="1">
	<advance width="600"/>
	<outline>
		<contour>
			<point x="300" y="-198" type="curve" smooth="yes"/>
			<point x="340" y="-198"/>
			<point x="370" y="-168"/>
			<point x="370" y="-128" type="curve" smooth="yes"/>
			<point x="370" y="-88"/>
			<point x="340" y="-56"/>
			<point x="300" y="-56" type="curve" smooth="yes"/>
			<point x="260" y="-56"/>
			<point x="230" y="-88"/>
			<point x="230" y="-128" type="curve" smooth="yes"/>
			<point x="230" y="-168"/>
			<point x="260" y="-198"/>
		</contour>
	</outline>
</glyph>
<glyph name="quoteleftheavy" format="2">
	<advance width="600"/>
	<outline>
		<contour>
			<point x="310" y="204" type="curve" smooth="yes"/>
			<point x="402" y="204"/>
			<point x="466" y="272"/>
			<point x="466" y="370" type="curve" smooth="yes"/>
			<point x="466" y="458"/>
			<point x="402" y="516"/>
			<point x="320" y="516" type="curve" smooth="yes"/>
			<point x="294" y="516"/>
			<point x="268" y="509"/>
			<point x="250" y="494" type="curve"/>
			<point x="291" y="376" type="line"/>
			<point x="290" y="504" type="line"/>
			<point x="290" y="564"/>
			<point x="330" y="602"/>
			<point x="396" y="632" type="curve"/>
			<point x="350" y="706" type="line"/>
			<point x="204" y="644"/>
			<point x="134" y="536"/>
			<point x="134" y="404" type="curve" smooth="yes"/>
			<point x="134" y="282"/>
			<point x="196" y="204"/>
		</contour>
	</outline>
</glyph>
<glyph name="quoterightheavy" format="2">
	<advance width="480"/>
	<outline>
		<contour>
			<point x="250" y="204" type="line"/>
			<point x="396" y="266"/>
			<point x="466" y="374"/>
			<point x="466" y="506" type="curve" smooth="yes"/>
			<point x="466" y="628"/>
			<point x="404" y="706"/>
			<point x="290" y="706" type="curve" smooth="yes"/>
			<point x="198" y="706"/>
			<point x="134" y="638"/>
			<point x="134" y="540" type="curve" smooth="yes"/>
			<point x="134" y="452"/>
			<point x="198" y="394"/>
			<point x="280" y="394" type="curve" smooth="yes"/>
			<point x="306" y="394"/>
			<point x="332" y="401"/>
			<point x="350" y="416" type="curve"/>
			<point x="309" y="534" type="line"/>
			<point x="310" y="406" type="line"/>
			<point x="310" y="346"/>
			<point x="270" y="308"/>
			<point x="204" y="278" type="curve"/>
		</contour>
	</outline>
</glyph>
<glyph name="shcha.c" format="2">
	<advance width="600"/>
	<outline>
		<contour>
			<point x="554" y="-172" type="line"/>
			<point x="580" y="-172" type="line"/>
			<point x="584" y="12" type="line"/>
			<point x="584" y="28" type="line"/>
			<point x="570" y="26"/>
			<point x="563" y="26"/>
			<point x="556" y="26" type="curve" smooth="yes"/>
			<point x="534" y="26"/>
			<point x="520" y="36"/>
			<point x="520" y="68" type="curve" smooth="yes"/>
			<point x="520" y="478" type="line"/>
			<point x="490" y="478" type="line"/>
			<point x="490" y="112" type="line"/>
			<point x="456" y="48"/>
			<point x="426" y="16"/>
			<point x="379" y="16" type="curve" smooth="yes"/>
			<point x="329" y="16"/>
			<point x="304" y="56"/>
			<point x="304" y="134" type="curve" smooth="yes"/>
			<point x="304" y="478" type="line"/>
			<point x="274" y="478" type="line"/>
			<point x="274" y="112" type="line"/>
			<point x="240" y="48"/>
			<point x="210" y="16"/>
			<point x="163" y="16" type="curve" smooth="yes"/>
			<point x="113" y="16"/>
			<point x="88" y="56"/>
			<point x="88" y="134" type="curve" smooth="yes"/>
			<point x="88" y="478" type="line"/>
			<point x="58" y="478" type="line"/>
			<point x="58" y="130" type="line" smooth="yes"/>
			<point x="58" y="34"/>
			<point x="95" y="-12"/>
			<point x="161" y="-12" type="curve" smooth="yes"/>
			<point x="214" y="-12"/>
			<point x="243" y="18"/>
			<point x="280" y="74" type="curve"/>
			<point x="293" y="16"/>
			<point x="323" y="-12"/>
			<point x="377" y="-12" type="curve" smooth="yes"/>
			<point x="430" y="-12"/>
			<point x="459" y="18"/>
			<point x="488" y="66" type="curve"/>
			<point x="490" y="66" type="line"/>
			<point x="494" y="20"/>
			<point x="510" y="0"/>
			<point x="554" y="0" type="curve"/>
		</contour>
	</outline>
</glyph>
<glyph name="uniE0B1" format="1">
	<advance width="600"/>
	<outline>
		<contour>
			<point x="74" y="-212" type="line"/>
			<point x="630" y="380" type="line"/>
			<point x="74" y="972" type="line"/>
			<point x="-20" y="880" type="line"/>
			<point x="456" y="380" type="line"/>
			<point x="-20" y="-120" type="line"/>
		</contour>
	</outline>
</glyph>
<glyph name="zero.0o" format="1">
	<advance width="600"/>
	<outline>
		<contour>
			<point x="300" y="-12" type="curve" smooth="yes"/>
			<point x="449" y="-12"/>
			<point x="550" y="98"/>
			<point x="550" y="294" type="curve" smooth="yes"/>
			<point x="550" y="490"/>
			<point x="449" y="592"/>
			<point x="300" y="592" type="curve" smooth="yes"/>
			<point x="151" y="592"/>
			<point x="50" y="490"/>
			<point x="50" y="294" type="curve" smooth="yes"/>
			<point x="50" y="98"/>
			<point x="151" y="-12"/>
		</contour>
		<contour>
			<point x="300" y="110" type="curve" smooth="yes"/>
			<point x="247" y="110"/>
			<point x="202" y="152"/>
			<point x="202" y="294" type="curve" smooth="yes"/>
			<point x="202" y="436"/>
			<point x="247" y="470"/>
			<point x="300" y="470" type="curve" smooth="yes"/>
			<point x="353" y="470"/>
			<point x="398" y="436"/>
			<point x="398" y="294" type="curve" smooth="yes"/>
			<point x="398" y="152"/>
			<point x="353" y="110"/>
		</contour>
		<contour>
			<point x="382" y="112" type="line"/>
			<point x="476" y="128" type="line"/>
			<point x="218" y="472" type="line"/>
			<point x="124" y="456" type="line"/>
		</contour>
	</outline>
</glyph>
